G04*
G04 #@! TF.GenerationSoftware,Altium Limited,Altium Designer,19.0.14 (431)*
G04*
G04 Layer_Color=16711935*
%FSLAX25Y25*%
%MOIN*%
G70*
G01*
G75*
%ADD34C,0.05512*%
%ADD35C,0.07874*%
%ADD36C,0.15748*%
%ADD37R,0.08858X0.08858*%
%ADD38C,0.08858*%
%ADD39C,0.07087*%
%ADD40O,0.05118X0.07874*%
%ADD41O,0.07874X0.05118*%
D34*
X111221Y56378D02*
D03*
Y96378D02*
D03*
X63385Y95984D02*
D03*
X81693Y55866D02*
D03*
Y85866D02*
D03*
X52165Y55866D02*
D03*
Y85866D02*
D03*
X22638Y55866D02*
D03*
Y85866D02*
D03*
D35*
X24291Y151220D02*
D03*
Y161220D02*
D03*
Y171220D02*
D03*
Y181220D02*
D03*
Y191220D02*
D03*
Y201220D02*
D03*
Y211220D02*
D03*
Y221220D02*
D03*
X114291Y201220D02*
D03*
Y191220D02*
D03*
Y221220D02*
D03*
Y211220D02*
D03*
Y181220D02*
D03*
Y171220D02*
D03*
Y161220D02*
D03*
Y151220D02*
D03*
D36*
X30512Y241830D02*
D03*
X107086Y129625D02*
D03*
D37*
X22638Y19686D02*
D03*
D38*
X52165D02*
D03*
X81693D02*
D03*
X111220D02*
D03*
D39*
X155512Y318898D02*
D03*
X175197D02*
D03*
X155512Y19685D02*
D03*
X175197D02*
D03*
D40*
X30906Y307087D02*
D03*
X16339D02*
D03*
X74213D02*
D03*
X59646D02*
D03*
X117520Y307087D02*
D03*
X102953D02*
D03*
D41*
X23622Y299213D02*
D03*
Y326378D02*
D03*
X66929Y299213D02*
D03*
Y326378D02*
D03*
X110236Y299213D02*
D03*
Y326378D02*
D03*
M02*
