G04*
G04 #@! TF.GenerationSoftware,Altium Limited,Altium Designer,19.0.14 (431)*
G04*
G04 Layer_Color=8388736*
%FSLAX25Y25*%
%MOIN*%
G70*
G01*
G75*
%ADD15R,0.07087X0.03937*%
%ADD16R,0.02362X0.03543*%
%ADD17R,0.02756X0.02362*%
%ADD18R,0.01575X0.01575*%
%ADD19R,0.03150X0.05512*%
%ADD20R,0.03543X0.02362*%
%ADD21R,0.05512X0.03150*%
%ADD22R,0.02362X0.02756*%
%ADD23R,0.01575X0.01575*%
%ADD24R,0.01000X0.04000*%
%ADD25R,0.04000X0.01000*%
%ADD26R,0.05512X0.03937*%
%ADD27R,0.04331X0.07874*%
%ADD28R,0.04331X0.03150*%
%ADD29R,0.02362X0.03150*%
%ADD30R,0.03150X0.07087*%
%ADD31R,0.10236X0.03937*%
%ADD32R,0.04724X0.07874*%
%ADD33R,0.03150X0.03150*%
%ADD34C,0.05512*%
%ADD35C,0.07874*%
%ADD36C,0.15748*%
%ADD37R,0.08858X0.08858*%
%ADD38C,0.08858*%
%ADD39C,0.07087*%
%ADD40O,0.05118X0.07874*%
%ADD41O,0.07874X0.05118*%
D15*
X81693Y92224D02*
D03*
Y104626D02*
D03*
X52165Y92224D02*
D03*
Y104626D02*
D03*
X22638Y92224D02*
D03*
Y104626D02*
D03*
D16*
X21062Y266928D02*
D03*
X27166Y266929D02*
D03*
X12992Y171220D02*
D03*
X6693D02*
D03*
X12992Y181102D02*
D03*
X6693D02*
D03*
X130708Y191338D02*
D03*
X124409D02*
D03*
X12992Y190945D02*
D03*
X6693D02*
D03*
X130708Y201378D02*
D03*
X124409D02*
D03*
X130708Y211614D02*
D03*
X124409D02*
D03*
X131102Y221260D02*
D03*
X124803D02*
D03*
X12992Y161220D02*
D03*
X6693D02*
D03*
X106693Y266732D02*
D03*
X101181D02*
D03*
X112599Y266732D02*
D03*
X118111D02*
D03*
X100394Y283071D02*
D03*
X106693D02*
D03*
X119015Y283267D02*
D03*
X112716D02*
D03*
X64131Y266732D02*
D03*
X58619D02*
D03*
X76729Y283267D02*
D03*
X70430D02*
D03*
X57833Y283268D02*
D03*
X64132D02*
D03*
X70191Y266733D02*
D03*
X75703D02*
D03*
X15551Y266928D02*
D03*
X32678Y266929D02*
D03*
X33766Y283662D02*
D03*
X27466D02*
D03*
X14763Y283661D02*
D03*
X21062D02*
D03*
X87880Y112205D02*
D03*
X82368D02*
D03*
X46108Y112205D02*
D03*
X51619D02*
D03*
X29033Y112205D02*
D03*
X23521D02*
D03*
X74409Y203102D02*
D03*
X68897D02*
D03*
X70997Y209469D02*
D03*
X77296D02*
D03*
X161810Y290354D02*
D03*
X155511D02*
D03*
X150787Y115158D02*
D03*
X144488D02*
D03*
X150787Y109252D02*
D03*
X144488D02*
D03*
X147244Y206693D02*
D03*
X152756D02*
D03*
D17*
X14763Y142903D02*
D03*
Y136554D02*
D03*
X147441Y216141D02*
D03*
Y222491D02*
D03*
D18*
X13189Y139753D02*
D03*
X16364D02*
D03*
X149016Y219291D02*
D03*
X145841D02*
D03*
D19*
X14567Y150000D02*
D03*
X7480D02*
D03*
X74410Y196851D02*
D03*
X81497D02*
D03*
X81725Y209449D02*
D03*
X88811D02*
D03*
X63189Y196046D02*
D03*
X56102D02*
D03*
X48228Y182481D02*
D03*
X41141D02*
D03*
X135678Y56102D02*
D03*
X128592D02*
D03*
D20*
X106693Y277952D02*
D03*
Y271653D02*
D03*
X112559Y277952D02*
D03*
Y271653D02*
D03*
X64131Y277952D02*
D03*
Y271653D02*
D03*
X70160Y277978D02*
D03*
Y271679D02*
D03*
X20867Y278543D02*
D03*
Y272244D02*
D03*
X27166Y278346D02*
D03*
Y272047D02*
D03*
X77618Y142221D02*
D03*
Y135922D02*
D03*
X72547Y142221D02*
D03*
Y136709D02*
D03*
X62405Y142221D02*
D03*
Y136709D02*
D03*
X67476Y142221D02*
D03*
Y135922D02*
D03*
X52263Y142221D02*
D03*
Y136709D02*
D03*
X57335Y142221D02*
D03*
Y135922D02*
D03*
X39961Y163120D02*
D03*
Y157609D02*
D03*
X137401Y30315D02*
D03*
Y36615D02*
D03*
D21*
X46851Y162992D02*
D03*
Y155905D02*
D03*
D22*
X63189Y203148D02*
D03*
X56839D02*
D03*
X48229Y189764D02*
D03*
X41879D02*
D03*
X129159Y63779D02*
D03*
X135509D02*
D03*
D23*
X60039Y204722D02*
D03*
Y201548D02*
D03*
X45079Y191339D02*
D03*
Y188164D02*
D03*
X132309Y62204D02*
D03*
Y65379D02*
D03*
D24*
X63344Y189413D02*
D03*
X65312D02*
D03*
X67281D02*
D03*
X71218D02*
D03*
X69249D02*
D03*
X73186Y189413D02*
D03*
X77171D02*
D03*
X75171Y189413D02*
D03*
X81071D02*
D03*
X83071Y189413D02*
D03*
X85071Y189413D02*
D03*
X79171D02*
D03*
X65312Y153896D02*
D03*
X63344D02*
D03*
X67281D02*
D03*
X71218D02*
D03*
X69249D02*
D03*
X73186D02*
D03*
X77171D02*
D03*
X75171D02*
D03*
X79171D02*
D03*
X83071D02*
D03*
X81071D02*
D03*
X85071D02*
D03*
D25*
X56454Y178586D02*
D03*
Y182523D02*
D03*
Y180555D02*
D03*
Y174649D02*
D03*
X56454Y172681D02*
D03*
X56454Y176618D02*
D03*
X91971Y182523D02*
D03*
Y180555D02*
D03*
Y174649D02*
D03*
Y178586D02*
D03*
Y176618D02*
D03*
X56454Y168696D02*
D03*
X56454Y170696D02*
D03*
Y166697D02*
D03*
Y164796D02*
D03*
X56454Y162796D02*
D03*
X56454Y160796D02*
D03*
X91971Y168696D02*
D03*
Y172681D02*
D03*
Y170696D02*
D03*
Y162796D02*
D03*
Y160797D02*
D03*
Y166697D02*
D03*
Y164796D02*
D03*
D26*
X85629Y139366D02*
D03*
Y145665D02*
D03*
X94290Y139366D02*
D03*
Y145665D02*
D03*
D27*
X135886Y72441D02*
D03*
D28*
Y79921D02*
D03*
D29*
X151378Y103032D02*
D03*
X143897D02*
D03*
X147638Y94489D02*
D03*
D30*
X160236Y83464D02*
D03*
X168897D02*
D03*
X177559D02*
D03*
Y55905D02*
D03*
X168897D02*
D03*
X147637Y83464D02*
D03*
X160236Y55905D02*
D03*
X147637D02*
D03*
D31*
X163228Y189370D02*
D03*
X147480D02*
D03*
D32*
X144842Y235237D02*
D03*
X154842D02*
D03*
X164842D02*
D03*
X174842D02*
D03*
X144842Y275001D02*
D03*
X154842D02*
D03*
X164842D02*
D03*
X174842D02*
D03*
D33*
X137401Y8662D02*
D03*
Y14961D02*
D03*
D34*
X111221Y56378D02*
D03*
Y96378D02*
D03*
X63385Y95984D02*
D03*
X81693Y55866D02*
D03*
Y85866D02*
D03*
X52165Y55866D02*
D03*
Y85866D02*
D03*
X22638Y55866D02*
D03*
Y85866D02*
D03*
D35*
X24291Y151220D02*
D03*
Y161220D02*
D03*
Y171220D02*
D03*
Y181220D02*
D03*
Y191220D02*
D03*
Y201220D02*
D03*
Y211220D02*
D03*
Y221220D02*
D03*
X114291Y201220D02*
D03*
Y191220D02*
D03*
Y221220D02*
D03*
Y211220D02*
D03*
Y181220D02*
D03*
Y171220D02*
D03*
Y161220D02*
D03*
Y151220D02*
D03*
D36*
X30512Y241830D02*
D03*
X107086Y129625D02*
D03*
D37*
X22638Y19686D02*
D03*
D38*
X52165D02*
D03*
X81693D02*
D03*
X111220D02*
D03*
D39*
X155512Y318898D02*
D03*
X175197D02*
D03*
X155512Y19685D02*
D03*
X175197D02*
D03*
D40*
X30906Y307087D02*
D03*
X16339D02*
D03*
X74213D02*
D03*
X59646D02*
D03*
X117520Y307087D02*
D03*
X102953D02*
D03*
D41*
X23622Y299213D02*
D03*
Y326378D02*
D03*
X66929Y299213D02*
D03*
Y326378D02*
D03*
X110236Y299213D02*
D03*
Y326378D02*
D03*
M02*
