G04*
G04 #@! TF.GenerationSoftware,Altium Limited,Altium Designer,19.0.14 (431)*
G04*
G04 Layer_Physical_Order=2*
G04 Layer_Color=16711680*
%FSLAX25Y25*%
%MOIN*%
G70*
G01*
G75*
%ADD11C,0.01000*%
%ADD14C,0.01181*%
%ADD34C,0.05512*%
%ADD35C,0.07874*%
%ADD36C,0.15748*%
%ADD37R,0.08858X0.08858*%
%ADD38C,0.08858*%
%ADD39C,0.07087*%
%ADD40O,0.05118X0.07874*%
%ADD41O,0.07874X0.05118*%
%ADD44C,0.01968*%
%ADD45C,0.02756*%
%ADD46C,0.02362*%
%ADD47C,0.02953*%
G36*
X141732Y279528D02*
X191709D01*
Y102756D01*
X1204D01*
Y337378D01*
X141732D01*
Y279528D01*
D02*
G37*
%LPC*%
G36*
X68307Y329753D02*
X65551D01*
X64678Y329639D01*
X63864Y329301D01*
X63165Y328765D01*
X62628Y328066D01*
X62291Y327252D01*
X62176Y326378D01*
X62291Y325505D01*
X62628Y324691D01*
X63165Y323991D01*
X63864Y323455D01*
X64678Y323118D01*
X65551Y323003D01*
X68307D01*
X69181Y323118D01*
X69995Y323455D01*
X70694Y323991D01*
X71231Y324691D01*
X71568Y325505D01*
X71683Y326378D01*
X71568Y327252D01*
X71231Y328066D01*
X70694Y328765D01*
X69995Y329301D01*
X69181Y329639D01*
X68307Y329753D01*
D02*
G37*
G36*
X25000D02*
X22244D01*
X21371Y329639D01*
X20556Y329301D01*
X19857Y328765D01*
X19321Y328066D01*
X18984Y327252D01*
X18869Y326378D01*
X18984Y325505D01*
X19321Y324691D01*
X19857Y323991D01*
X20556Y323455D01*
X21371Y323118D01*
X22244Y323003D01*
X25000D01*
X25874Y323118D01*
X26688Y323455D01*
X27387Y323991D01*
X27923Y324691D01*
X28260Y325505D01*
X28375Y326378D01*
X28260Y327252D01*
X27923Y328066D01*
X27387Y328765D01*
X26688Y329301D01*
X25874Y329639D01*
X25000Y329753D01*
D02*
G37*
G36*
X111614Y329753D02*
X108858D01*
X107985Y329639D01*
X107171Y329301D01*
X106472Y328765D01*
X105935Y328066D01*
X105598Y327252D01*
X105483Y326378D01*
X105598Y325505D01*
X105935Y324691D01*
X106472Y323991D01*
X107171Y323455D01*
X107985Y323118D01*
X108858Y323003D01*
X111614D01*
X112488Y323118D01*
X113302Y323455D01*
X114001Y323991D01*
X114537Y324691D01*
X114874Y325505D01*
X114989Y326378D01*
X114874Y327252D01*
X114537Y328066D01*
X114001Y328765D01*
X113302Y329301D01*
X112488Y329639D01*
X111614Y329753D01*
D02*
G37*
G36*
X66929Y320106D02*
X66107Y319998D01*
X65341Y319681D01*
X64683Y319176D01*
X64178Y318518D01*
X63861Y317752D01*
X63753Y316929D01*
X63861Y316107D01*
X64178Y315341D01*
X64683Y314683D01*
X65341Y314178D01*
X66107Y313861D01*
X66929Y313753D01*
X67752Y313861D01*
X68518Y314178D01*
X69176Y314683D01*
X69681Y315341D01*
X69998Y316107D01*
X70106Y316929D01*
X69998Y317752D01*
X69681Y318518D01*
X69176Y319176D01*
X68518Y319681D01*
X67752Y319998D01*
X66929Y320106D01*
D02*
G37*
G36*
X23622D02*
X22800Y319998D01*
X22034Y319681D01*
X21376Y319176D01*
X20871Y318518D01*
X20553Y317752D01*
X20445Y316929D01*
X20553Y316107D01*
X20871Y315341D01*
X21376Y314683D01*
X22034Y314178D01*
X22800Y313861D01*
X23622Y313753D01*
X24444Y313861D01*
X25210Y314178D01*
X25868Y314683D01*
X26373Y315341D01*
X26691Y316107D01*
X26799Y316929D01*
X26691Y317752D01*
X26373Y318518D01*
X25868Y319176D01*
X25210Y319681D01*
X24444Y319998D01*
X23622Y320106D01*
D02*
G37*
G36*
X110236Y320106D02*
X109414Y319998D01*
X108648Y319681D01*
X107990Y319176D01*
X107485Y318518D01*
X107168Y317752D01*
X107059Y316929D01*
X107168Y316107D01*
X107485Y315341D01*
X107990Y314683D01*
X108648Y314178D01*
X109414Y313861D01*
X110236Y313753D01*
X111058Y313861D01*
X111825Y314178D01*
X112483Y314683D01*
X112987Y315341D01*
X113305Y316107D01*
X113413Y316929D01*
X113305Y317752D01*
X112987Y318518D01*
X112483Y319176D01*
X111825Y319681D01*
X111058Y319998D01*
X110236Y320106D01*
D02*
G37*
G36*
X74213Y311840D02*
X73339Y311725D01*
X72525Y311388D01*
X71826Y310852D01*
X71290Y310152D01*
X70952Y309338D01*
X70837Y308465D01*
Y305709D01*
X70952Y304835D01*
X71290Y304021D01*
X71826Y303322D01*
X72525Y302786D01*
X73339Y302449D01*
X74213Y302333D01*
X75086Y302449D01*
X75901Y302786D01*
X76600Y303322D01*
X77136Y304021D01*
X77473Y304835D01*
X77588Y305709D01*
Y308465D01*
X77473Y309338D01*
X77136Y310152D01*
X76600Y310852D01*
X75901Y311388D01*
X75086Y311725D01*
X74213Y311840D01*
D02*
G37*
G36*
X59646D02*
X58772Y311725D01*
X57958Y311388D01*
X57259Y310852D01*
X56723Y310152D01*
X56386Y309338D01*
X56271Y308465D01*
Y305709D01*
X56386Y304835D01*
X56723Y304021D01*
X57259Y303322D01*
X57958Y302786D01*
X58772Y302449D01*
X59646Y302333D01*
X60519Y302449D01*
X61334Y302786D01*
X62033Y303322D01*
X62569Y304021D01*
X62906Y304835D01*
X63021Y305709D01*
Y308465D01*
X62906Y309338D01*
X62569Y310152D01*
X62033Y310852D01*
X61334Y311388D01*
X60519Y311725D01*
X59646Y311840D01*
D02*
G37*
G36*
X30906D02*
X30032Y311725D01*
X29218Y311388D01*
X28519Y310852D01*
X27982Y310152D01*
X27645Y309338D01*
X27530Y308465D01*
Y305709D01*
X27645Y304835D01*
X27982Y304021D01*
X28519Y303322D01*
X29218Y302786D01*
X30032Y302449D01*
X30906Y302333D01*
X31779Y302449D01*
X32593Y302786D01*
X33292Y303322D01*
X33829Y304021D01*
X34166Y304835D01*
X34281Y305709D01*
Y308465D01*
X34166Y309338D01*
X33829Y310152D01*
X33292Y310852D01*
X32593Y311388D01*
X31779Y311725D01*
X30906Y311840D01*
D02*
G37*
G36*
X16339D02*
X15465Y311725D01*
X14651Y311388D01*
X13952Y310852D01*
X13416Y310152D01*
X13078Y309338D01*
X12963Y308465D01*
Y305709D01*
X13078Y304835D01*
X13416Y304021D01*
X13952Y303322D01*
X14651Y302786D01*
X15465Y302449D01*
X16339Y302333D01*
X17212Y302449D01*
X18026Y302786D01*
X18725Y303322D01*
X19262Y304021D01*
X19599Y304835D01*
X19714Y305709D01*
Y308465D01*
X19599Y309338D01*
X19262Y310152D01*
X18725Y310852D01*
X18026Y311388D01*
X17212Y311725D01*
X16339Y311840D01*
D02*
G37*
G36*
X117520Y311840D02*
X116646Y311725D01*
X115832Y311388D01*
X115133Y310852D01*
X114597Y310152D01*
X114259Y309338D01*
X114144Y308465D01*
Y305709D01*
X114259Y304835D01*
X114597Y304021D01*
X115133Y303322D01*
X115832Y302786D01*
X116646Y302449D01*
X117520Y302333D01*
X118393Y302449D01*
X119207Y302786D01*
X119906Y303322D01*
X120443Y304021D01*
X120780Y304835D01*
X120895Y305709D01*
Y308465D01*
X120780Y309338D01*
X120443Y310152D01*
X119906Y310852D01*
X119207Y311388D01*
X118393Y311725D01*
X117520Y311840D01*
D02*
G37*
G36*
X102953D02*
X102079Y311725D01*
X101265Y311388D01*
X100566Y310852D01*
X100030Y310152D01*
X99692Y309338D01*
X99577Y308465D01*
Y305709D01*
X99692Y304835D01*
X100030Y304021D01*
X100566Y303322D01*
X101265Y302786D01*
X102079Y302449D01*
X102953Y302333D01*
X103826Y302449D01*
X104640Y302786D01*
X105340Y303322D01*
X105876Y304021D01*
X106213Y304835D01*
X106328Y305709D01*
Y308465D01*
X106213Y309338D01*
X105876Y310152D01*
X105340Y310852D01*
X104640Y311388D01*
X103826Y311725D01*
X102953Y311840D01*
D02*
G37*
G36*
X68307Y302588D02*
X65551D01*
X64678Y302473D01*
X63864Y302136D01*
X63165Y301600D01*
X62628Y300901D01*
X62291Y300086D01*
X62176Y299213D01*
X62291Y298339D01*
X62628Y297525D01*
X63165Y296826D01*
X63864Y296290D01*
X64678Y295953D01*
X65551Y295837D01*
X68307D01*
X69181Y295953D01*
X69995Y296290D01*
X70694Y296826D01*
X71231Y297525D01*
X71568Y298339D01*
X71683Y299213D01*
X71568Y300086D01*
X71231Y300901D01*
X70694Y301600D01*
X69995Y302136D01*
X69181Y302473D01*
X68307Y302588D01*
D02*
G37*
G36*
X25000D02*
X22244D01*
X21371Y302473D01*
X20556Y302136D01*
X19857Y301600D01*
X19321Y300901D01*
X18984Y300086D01*
X18869Y299213D01*
X18984Y298339D01*
X19321Y297525D01*
X19857Y296826D01*
X20556Y296290D01*
X21371Y295953D01*
X22244Y295837D01*
X25000D01*
X25874Y295953D01*
X26688Y296290D01*
X27387Y296826D01*
X27923Y297525D01*
X28260Y298339D01*
X28375Y299213D01*
X28260Y300086D01*
X27923Y300901D01*
X27387Y301600D01*
X26688Y302136D01*
X25874Y302473D01*
X25000Y302588D01*
D02*
G37*
G36*
X111614Y302588D02*
X108858D01*
X107985Y302473D01*
X107171Y302136D01*
X106472Y301600D01*
X105935Y300901D01*
X105598Y300086D01*
X105483Y299213D01*
X105598Y298339D01*
X105935Y297525D01*
X106472Y296826D01*
X107171Y296290D01*
X107985Y295953D01*
X108858Y295837D01*
X111614D01*
X112488Y295953D01*
X113302Y296290D01*
X114001Y296826D01*
X114537Y297525D01*
X114874Y298339D01*
X114989Y299213D01*
X114874Y300086D01*
X114537Y300901D01*
X114001Y301600D01*
X113302Y302136D01*
X112488Y302473D01*
X111614Y302588D01*
D02*
G37*
G36*
X68799Y263625D02*
X67954Y263457D01*
X67238Y262979D01*
X66817D01*
X66101Y263457D01*
X65256Y263625D01*
X64411Y263457D01*
X63695Y262979D01*
X63216Y262262D01*
X63048Y261417D01*
X63216Y260572D01*
X63695Y259856D01*
X64382Y259397D01*
X64420Y259205D01*
X64704Y258779D01*
X64829Y258655D01*
Y251081D01*
X37064Y223316D01*
X36779Y222890D01*
X36680Y222387D01*
Y179187D01*
X36779Y178685D01*
X37064Y178259D01*
X43472Y171851D01*
X43898Y171566D01*
X44400Y171467D01*
X47090D01*
X47173Y171048D01*
X47651Y170332D01*
X48368Y169854D01*
X49213Y169686D01*
X50058Y169854D01*
X50774Y170332D01*
X51252Y171048D01*
X51420Y171893D01*
X51252Y172738D01*
X50857Y173330D01*
X50806Y173665D01*
X50857Y174000D01*
X51252Y174592D01*
X51420Y175437D01*
X51252Y176282D01*
X50774Y176998D01*
X50058Y177476D01*
X49213Y177645D01*
X48368Y177476D01*
X47651Y176998D01*
X47173Y176282D01*
X47090Y175864D01*
X45678D01*
X41076Y180465D01*
Y221110D01*
X68841Y248875D01*
X69126Y249301D01*
X69226Y249803D01*
Y258655D01*
X69351Y258779D01*
X69635Y259205D01*
X69674Y259397D01*
X70360Y259856D01*
X70839Y260572D01*
X71007Y261417D01*
X70839Y262262D01*
X70360Y262979D01*
X69644Y263457D01*
X68799Y263625D01*
D02*
G37*
G36*
X106715Y269620D02*
X100054D01*
X99551Y269520D01*
X99125Y269235D01*
X94544Y264654D01*
X94260Y264228D01*
X94160Y263726D01*
Y221678D01*
X66592Y194110D01*
X66307Y193684D01*
X66207Y193182D01*
Y184610D01*
X65707Y184343D01*
X64961Y184491D01*
X64116Y184323D01*
X63524Y183928D01*
X63189Y183877D01*
X62854Y183928D01*
X62262Y184323D01*
X61417Y184491D01*
X60572Y184323D01*
X59856Y183845D01*
X59378Y183128D01*
X59210Y182283D01*
X59378Y181439D01*
X59620Y181076D01*
X59353Y180576D01*
X57501D01*
X53478Y184599D01*
Y211914D01*
X53378Y212416D01*
X53093Y212842D01*
X51183Y214752D01*
X51548Y215297D01*
X51716Y216142D01*
X51548Y216987D01*
X51069Y217703D01*
X50353Y218181D01*
X49508Y218350D01*
X48663Y218181D01*
X48071Y217786D01*
X47736Y217735D01*
X47401Y217786D01*
X46809Y218181D01*
X45965Y218350D01*
X45120Y218181D01*
X44403Y217703D01*
X43925Y216987D01*
X43757Y216142D01*
X43925Y215297D01*
X44403Y214581D01*
X45120Y214102D01*
X45738Y213979D01*
X49081Y210636D01*
Y183321D01*
X49181Y182819D01*
X49466Y182393D01*
X55295Y176563D01*
X55721Y176279D01*
X56223Y176179D01*
X62576D01*
X63078Y176279D01*
X63504Y176563D01*
X65003Y178062D01*
X65288Y178488D01*
X65387Y178991D01*
Y179885D01*
X65750Y180061D01*
X66207Y179792D01*
Y177005D01*
X65750Y176617D01*
X65748Y176617D01*
X64903Y176449D01*
X64187Y175971D01*
X63708Y175254D01*
X63540Y174409D01*
X63708Y173565D01*
X64187Y172848D01*
X64903Y172370D01*
X65748Y172202D01*
X66046Y171904D01*
X66214Y171059D01*
X66692Y170343D01*
X67409Y169864D01*
X68253Y169696D01*
X69098Y169864D01*
X69815Y170343D01*
X69841Y170382D01*
X70341Y170230D01*
Y167473D01*
X69535Y166667D01*
X51968D01*
X51466Y166567D01*
X51040Y166282D01*
X30165Y145407D01*
X22591D01*
X14305Y153693D01*
Y181575D01*
X14205Y182077D01*
X13920Y182503D01*
X10811Y185612D01*
X10869Y185905D01*
X10701Y186750D01*
X10222Y187466D01*
X9506Y187945D01*
X8661Y188113D01*
X7817Y187945D01*
X7100Y187466D01*
X6622Y186750D01*
X6454Y185905D01*
X6622Y185060D01*
X7100Y184344D01*
X7817Y183866D01*
X8661Y183697D01*
X8955Y183756D01*
X11680Y181031D01*
Y175191D01*
X11180Y175039D01*
X11164Y175062D01*
X10375Y175851D01*
X10425Y175927D01*
X10593Y176772D01*
X10425Y177617D01*
X9947Y178333D01*
X9230Y178811D01*
X8386Y178979D01*
X7541Y178811D01*
X6825Y178333D01*
X6346Y177617D01*
X6178Y176772D01*
X6346Y175927D01*
X6825Y175210D01*
X7541Y174732D01*
X7841Y174672D01*
X8924Y173590D01*
Y168706D01*
X8483Y168470D01*
X8325Y168575D01*
X7480Y168743D01*
X6635Y168575D01*
X5919Y168097D01*
X5441Y167380D01*
X5272Y166535D01*
X5441Y165691D01*
X5919Y164974D01*
X6168Y164808D01*
Y158277D01*
X5668Y158010D01*
X5176Y158339D01*
X4331Y158507D01*
X3486Y158339D01*
X2770Y157860D01*
X2291Y157144D01*
X2123Y156299D01*
X2291Y155454D01*
X2770Y154738D01*
X3018Y154572D01*
Y145669D01*
X3118Y145167D01*
X3403Y144741D01*
X12851Y135292D01*
X13277Y135008D01*
X13780Y134908D01*
X35433D01*
X35935Y135008D01*
X36361Y135292D01*
X56055Y154987D01*
X87008D01*
X87510Y155087D01*
X87936Y155371D01*
X95827Y163262D01*
X96112Y163688D01*
X96212Y164190D01*
Y187391D01*
X96837Y187809D01*
X97315Y188525D01*
X97483Y189370D01*
X97315Y190215D01*
X96837Y190931D01*
X96121Y191410D01*
X95276Y191578D01*
X94431Y191410D01*
X93714Y190931D01*
X93236Y190215D01*
X93068Y189370D01*
X93236Y188525D01*
X93586Y188001D01*
Y164734D01*
X86464Y157612D01*
X55512D01*
X55010Y157512D01*
X54584Y157227D01*
X34889Y137533D01*
X14323D01*
X5643Y146213D01*
Y154034D01*
X5668Y154049D01*
X6168Y153766D01*
Y151969D01*
X6268Y151466D01*
X6552Y151040D01*
X18363Y139229D01*
X18789Y138945D01*
X19291Y138845D01*
X32847D01*
X33350Y138945D01*
X33775Y139229D01*
X54651Y160105D01*
X72835D01*
X73337Y160205D01*
X73763Y160489D01*
X78093Y164820D01*
X78378Y165246D01*
X78478Y165748D01*
Y178068D01*
X78978Y178220D01*
X79147Y177966D01*
X79864Y177488D01*
X80709Y177320D01*
X81554Y177488D01*
X82270Y177966D01*
X82748Y178683D01*
X82916Y179528D01*
X82748Y180372D01*
X82270Y181089D01*
X82021Y181255D01*
Y184252D01*
X81921Y184754D01*
X81637Y185180D01*
X80062Y186755D01*
X80039Y186770D01*
X80191Y187270D01*
X82134D01*
X83727Y185677D01*
Y184404D01*
X83478Y184238D01*
X83000Y183522D01*
X82832Y182677D01*
X83000Y181832D01*
X83478Y181116D01*
X84194Y180638D01*
X85039Y180469D01*
X85884Y180638D01*
X86601Y181116D01*
X87079Y181832D01*
X87247Y182677D01*
X87079Y183522D01*
X86601Y184238D01*
X86352Y184404D01*
Y186221D01*
X86252Y186723D01*
X85967Y187149D01*
X83605Y189511D01*
X83179Y189795D01*
X82677Y189895D01*
X74410D01*
X73907Y189795D01*
X73481Y189511D01*
X71104Y187134D01*
X70604Y187341D01*
Y191904D01*
X98172Y219473D01*
X98457Y219899D01*
X98557Y220401D01*
Y262448D01*
X101331Y265223D01*
X105438D01*
X107078Y263583D01*
X107059Y263381D01*
X106946Y263008D01*
X106313Y262585D01*
X105834Y261869D01*
X105666Y261024D01*
X105834Y260179D01*
X106313Y259462D01*
X107029Y258984D01*
X107874Y258816D01*
X108719Y258984D01*
X109310Y259379D01*
X109646Y259430D01*
X109981Y259379D01*
X110573Y258984D01*
X111417Y258816D01*
X112262Y258984D01*
X112978Y259462D01*
X113457Y260179D01*
X113625Y261024D01*
X113457Y261869D01*
X112978Y262585D01*
X112262Y263063D01*
X111844Y263146D01*
Y264491D01*
X111744Y264993D01*
X111460Y265419D01*
X107643Y269235D01*
X107218Y269520D01*
X106715Y269620D01*
D02*
G37*
G36*
X30512Y250534D02*
X28814Y250367D01*
X27181Y249871D01*
X25676Y249067D01*
X24358Y247985D01*
X23275Y246666D01*
X22471Y245161D01*
X21976Y243528D01*
X21808Y241830D01*
X21976Y240133D01*
X22471Y238500D01*
X23275Y236995D01*
X24358Y235676D01*
X25676Y234594D01*
X27181Y233790D01*
X28814Y233294D01*
X30512Y233127D01*
X32210Y233294D01*
X33842Y233790D01*
X35347Y234594D01*
X36666Y235676D01*
X37748Y236995D01*
X38552Y238500D01*
X39048Y240133D01*
X39215Y241830D01*
X39048Y243528D01*
X38552Y245161D01*
X37748Y246666D01*
X36666Y247985D01*
X35347Y249067D01*
X33842Y249871D01*
X32210Y250367D01*
X30512Y250534D01*
D02*
G37*
G36*
X114291Y225985D02*
X113058Y225823D01*
X111909Y225347D01*
X110922Y224590D01*
X110164Y223603D01*
X109688Y222454D01*
X109526Y221220D01*
X109688Y219987D01*
X110164Y218838D01*
X110922Y217851D01*
X111909Y217093D01*
X113058Y216617D01*
X113935Y216502D01*
X114160Y216472D01*
Y215968D01*
X113935Y215939D01*
X113058Y215823D01*
X111909Y215347D01*
X110922Y214590D01*
X110164Y213603D01*
X109688Y212454D01*
X109526Y211220D01*
X109688Y209987D01*
X110164Y208838D01*
X110922Y207851D01*
X111909Y207094D01*
X113058Y206617D01*
X113935Y206502D01*
X114160Y206472D01*
Y205968D01*
X113935Y205939D01*
X113058Y205823D01*
X111909Y205347D01*
X110922Y204590D01*
X110164Y203603D01*
X109688Y202454D01*
X109526Y201220D01*
X109688Y199987D01*
X110164Y198838D01*
X110922Y197851D01*
X111909Y197093D01*
X113058Y196617D01*
X113935Y196502D01*
X114160Y196472D01*
Y195968D01*
X113935Y195939D01*
X113058Y195823D01*
X111909Y195347D01*
X110922Y194590D01*
X110164Y193603D01*
X109688Y192454D01*
X109526Y191220D01*
X109688Y189987D01*
X110164Y188838D01*
X110922Y187851D01*
X111909Y187093D01*
X113058Y186618D01*
X113935Y186502D01*
X114160Y186472D01*
Y185968D01*
X113935Y185939D01*
X113058Y185823D01*
X111909Y185347D01*
X110922Y184590D01*
X110164Y183603D01*
X109688Y182454D01*
X109526Y181220D01*
X109688Y179987D01*
X110164Y178838D01*
X110922Y177851D01*
X111909Y177094D01*
X113058Y176618D01*
X113935Y176502D01*
X114160Y176472D01*
Y175968D01*
X113935Y175939D01*
X113058Y175823D01*
X111909Y175347D01*
X110922Y174590D01*
X110164Y173603D01*
X109688Y172454D01*
X109526Y171220D01*
X109688Y169987D01*
X110164Y168838D01*
X110922Y167851D01*
X111909Y167094D01*
X113058Y166618D01*
X114291Y166455D01*
X115524Y166618D01*
X116674Y167094D01*
X117661Y167851D01*
X118418Y168838D01*
X118894Y169987D01*
X119056Y171220D01*
X118894Y172454D01*
X118418Y173603D01*
X117661Y174590D01*
X116674Y175347D01*
X115524Y175823D01*
X114647Y175939D01*
X114423Y175968D01*
Y176472D01*
X114647Y176502D01*
X115524Y176618D01*
X116674Y177094D01*
X117661Y177851D01*
X118418Y178838D01*
X118894Y179987D01*
X119056Y181220D01*
X118894Y182454D01*
X118418Y183603D01*
X117661Y184590D01*
X116674Y185347D01*
X115524Y185823D01*
X114647Y185939D01*
X114423Y185968D01*
Y186472D01*
X114647Y186502D01*
X115524Y186618D01*
X116674Y187093D01*
X117661Y187851D01*
X118418Y188838D01*
X118894Y189987D01*
X119056Y191220D01*
X118894Y192454D01*
X118418Y193603D01*
X117661Y194590D01*
X116674Y195347D01*
X115524Y195823D01*
X114647Y195939D01*
X114423Y195968D01*
Y196472D01*
X114647Y196502D01*
X115524Y196617D01*
X116674Y197093D01*
X117661Y197851D01*
X118418Y198838D01*
X118894Y199987D01*
X119056Y201220D01*
X118894Y202454D01*
X118418Y203603D01*
X117661Y204590D01*
X116674Y205347D01*
X115524Y205823D01*
X114647Y205939D01*
X114423Y205968D01*
Y206472D01*
X114647Y206502D01*
X115524Y206617D01*
X116674Y207094D01*
X117661Y207851D01*
X118418Y208838D01*
X118894Y209987D01*
X119056Y211220D01*
X118894Y212454D01*
X118418Y213603D01*
X117661Y214590D01*
X116674Y215347D01*
X115524Y215823D01*
X114647Y215939D01*
X114423Y215968D01*
Y216472D01*
X114647Y216502D01*
X115524Y216617D01*
X116674Y217093D01*
X117661Y217851D01*
X118418Y218838D01*
X118894Y219987D01*
X119056Y221220D01*
X118894Y222454D01*
X118418Y223603D01*
X117661Y224590D01*
X116674Y225347D01*
X115524Y225823D01*
X114291Y225985D01*
D02*
G37*
G36*
Y155985D02*
X113058Y155823D01*
X111909Y155347D01*
X110922Y154590D01*
X110164Y153603D01*
X109688Y152454D01*
X109526Y151220D01*
X109688Y149987D01*
X110164Y148838D01*
X110922Y147851D01*
X111909Y147093D01*
X113058Y146617D01*
X114291Y146455D01*
X115524Y146617D01*
X116674Y147093D01*
X117661Y147851D01*
X118418Y148838D01*
X118894Y149987D01*
X119056Y151220D01*
X118894Y152454D01*
X118418Y153603D01*
X117661Y154590D01*
X116674Y155347D01*
X115524Y155823D01*
X114291Y155985D01*
D02*
G37*
G36*
X24291Y225985D02*
X23058Y225823D01*
X21909Y225347D01*
X20922Y224590D01*
X20164Y223603D01*
X19688Y222454D01*
X19526Y221220D01*
X19688Y219987D01*
X20164Y218838D01*
X20922Y217851D01*
X21909Y217093D01*
X23058Y216617D01*
X23935Y216502D01*
X24160Y216472D01*
Y215968D01*
X23935Y215939D01*
X23058Y215823D01*
X21909Y215347D01*
X20922Y214590D01*
X20164Y213603D01*
X19688Y212454D01*
X19526Y211220D01*
X19688Y209987D01*
X20164Y208838D01*
X20922Y207851D01*
X21909Y207094D01*
X23058Y206617D01*
X23935Y206502D01*
X24160Y206472D01*
Y205968D01*
X23935Y205939D01*
X23058Y205823D01*
X21909Y205347D01*
X20922Y204590D01*
X20164Y203603D01*
X19688Y202454D01*
X19526Y201220D01*
X19688Y199987D01*
X20164Y198838D01*
X20922Y197851D01*
X21909Y197093D01*
X23058Y196617D01*
X23935Y196502D01*
X24160Y196472D01*
Y195968D01*
X23935Y195939D01*
X23058Y195823D01*
X21909Y195347D01*
X20922Y194590D01*
X20164Y193603D01*
X19688Y192454D01*
X19526Y191220D01*
X19688Y189987D01*
X20164Y188838D01*
X20922Y187851D01*
X21909Y187093D01*
X23058Y186618D01*
X23935Y186502D01*
X24160Y186472D01*
Y185968D01*
X23935Y185939D01*
X23058Y185823D01*
X21909Y185347D01*
X20922Y184590D01*
X20164Y183603D01*
X19688Y182454D01*
X19526Y181220D01*
X19688Y179987D01*
X20164Y178838D01*
X20922Y177851D01*
X21909Y177094D01*
X23058Y176618D01*
X23935Y176502D01*
X24160Y176472D01*
Y175968D01*
X23935Y175939D01*
X23058Y175823D01*
X21909Y175347D01*
X20922Y174590D01*
X20164Y173603D01*
X19688Y172454D01*
X19526Y171220D01*
X19688Y169987D01*
X20164Y168838D01*
X20922Y167851D01*
X21909Y167094D01*
X23058Y166618D01*
X23935Y166502D01*
X24160Y166472D01*
Y165968D01*
X23935Y165939D01*
X23058Y165823D01*
X21909Y165347D01*
X20922Y164590D01*
X20164Y163603D01*
X19688Y162454D01*
X19526Y161220D01*
X19688Y159987D01*
X20164Y158838D01*
X20922Y157851D01*
X21909Y157094D01*
X23058Y156617D01*
X23935Y156502D01*
X24160Y156472D01*
Y155968D01*
X23935Y155939D01*
X23058Y155823D01*
X21909Y155347D01*
X20922Y154590D01*
X20164Y153603D01*
X19688Y152454D01*
X19526Y151220D01*
X19688Y149987D01*
X20164Y148838D01*
X20922Y147851D01*
X21909Y147093D01*
X23058Y146617D01*
X24291Y146455D01*
X25525Y146617D01*
X26674Y147093D01*
X27661Y147851D01*
X28418Y148838D01*
X28894Y149987D01*
X29056Y151220D01*
X28894Y152454D01*
X28418Y153603D01*
X27661Y154590D01*
X26674Y155347D01*
X25525Y155823D01*
X24647Y155939D01*
X24423Y155968D01*
Y156472D01*
X24647Y156502D01*
X25525Y156617D01*
X26674Y157094D01*
X27661Y157851D01*
X28418Y158838D01*
X28894Y159987D01*
X29056Y161220D01*
X28894Y162454D01*
X28418Y163603D01*
X27661Y164590D01*
X26674Y165347D01*
X25525Y165823D01*
X24647Y165939D01*
X24423Y165968D01*
Y166472D01*
X24647Y166502D01*
X25525Y166618D01*
X26674Y167094D01*
X27661Y167851D01*
X28418Y168838D01*
X28894Y169987D01*
X29056Y171220D01*
X28894Y172454D01*
X28418Y173603D01*
X27661Y174590D01*
X26674Y175347D01*
X25525Y175823D01*
X24647Y175939D01*
X24423Y175968D01*
Y176472D01*
X24647Y176502D01*
X25525Y176618D01*
X26674Y177094D01*
X27661Y177851D01*
X28418Y178838D01*
X28894Y179987D01*
X29056Y181220D01*
X28894Y182454D01*
X28418Y183603D01*
X27661Y184590D01*
X26674Y185347D01*
X25525Y185823D01*
X24647Y185939D01*
X24423Y185968D01*
Y186472D01*
X24647Y186502D01*
X25525Y186618D01*
X26674Y187093D01*
X27661Y187851D01*
X28418Y188838D01*
X28894Y189987D01*
X29056Y191220D01*
X28894Y192454D01*
X28418Y193603D01*
X27661Y194590D01*
X26674Y195347D01*
X25525Y195823D01*
X24647Y195939D01*
X24423Y195968D01*
Y196472D01*
X24647Y196502D01*
X25525Y196617D01*
X26674Y197093D01*
X27661Y197851D01*
X28418Y198838D01*
X28894Y199987D01*
X29056Y201220D01*
X28894Y202454D01*
X28418Y203603D01*
X27661Y204590D01*
X26674Y205347D01*
X25525Y205823D01*
X24647Y205939D01*
X24423Y205968D01*
Y206472D01*
X24647Y206502D01*
X25525Y206617D01*
X26674Y207094D01*
X27661Y207851D01*
X28418Y208838D01*
X28894Y209987D01*
X29056Y211220D01*
X28894Y212454D01*
X28418Y213603D01*
X27661Y214590D01*
X26674Y215347D01*
X25525Y215823D01*
X24647Y215939D01*
X24423Y215968D01*
Y216472D01*
X24647Y216502D01*
X25525Y216617D01*
X26674Y217093D01*
X27661Y217851D01*
X28418Y218838D01*
X28894Y219987D01*
X29056Y221220D01*
X28894Y222454D01*
X28418Y223603D01*
X27661Y224590D01*
X26674Y225347D01*
X25525Y225823D01*
X24291Y225985D01*
D02*
G37*
G36*
X98425Y153775D02*
X62205D01*
X61514Y153637D01*
X60927Y153246D01*
X40590Y132909D01*
X15761D01*
X15412Y133142D01*
X14567Y133310D01*
X13722Y133142D01*
X13006Y132664D01*
X12527Y131947D01*
X12359Y131102D01*
X12527Y130257D01*
X13006Y129541D01*
X13722Y129063D01*
X14567Y128895D01*
X15412Y129063D01*
X15761Y129296D01*
X41339D01*
X42030Y129434D01*
X42616Y129825D01*
X62953Y150162D01*
X97677D01*
X106990Y140849D01*
X107577Y140457D01*
X108268Y140320D01*
X128333D01*
X128683Y140086D01*
X129528Y139918D01*
X130372Y140086D01*
X131089Y140565D01*
X131567Y141281D01*
X131735Y142126D01*
X131567Y142971D01*
X131089Y143687D01*
X130372Y144166D01*
X129528Y144334D01*
X128683Y144166D01*
X128333Y143932D01*
X109016D01*
X99703Y153246D01*
X99116Y153637D01*
X98425Y153775D01*
D02*
G37*
G36*
X64567Y148664D02*
X63722Y148496D01*
X63006Y148018D01*
X62527Y147302D01*
X62359Y146457D01*
X62527Y145612D01*
X63006Y144896D01*
X63254Y144729D01*
Y125743D01*
X63006Y125577D01*
X62527Y124861D01*
X62359Y124016D01*
X62527Y123171D01*
X63006Y122455D01*
X63722Y121976D01*
X64567Y121808D01*
X65412Y121976D01*
X66128Y122455D01*
X66607Y123171D01*
X66775Y124016D01*
X66607Y124861D01*
X66128Y125577D01*
X65879Y125743D01*
Y144729D01*
X66128Y144896D01*
X66607Y145612D01*
X66775Y146457D01*
X66607Y147302D01*
X66128Y148018D01*
X65412Y148496D01*
X64567Y148664D01*
D02*
G37*
G36*
X107086Y138328D02*
X105388Y138161D01*
X103755Y137666D01*
X102251Y136862D01*
X100932Y135779D01*
X99849Y134460D01*
X99045Y132956D01*
X98550Y131323D01*
X98383Y129625D01*
X98550Y127927D01*
X99045Y126295D01*
X99849Y124790D01*
X100932Y123471D01*
X102251Y122389D01*
X103755Y121584D01*
X105388Y121089D01*
X107086Y120922D01*
X108784Y121089D01*
X110416Y121584D01*
X111921Y122389D01*
X113240Y123471D01*
X114322Y124790D01*
X115127Y126295D01*
X115622Y127927D01*
X115789Y129625D01*
X115622Y131323D01*
X115127Y132956D01*
X114322Y134460D01*
X113240Y135779D01*
X111921Y136862D01*
X110416Y137666D01*
X108784Y138161D01*
X107086Y138328D01*
D02*
G37*
G36*
X70472Y148664D02*
X69628Y148496D01*
X68911Y148018D01*
X68433Y147302D01*
X68265Y146457D01*
X68433Y145612D01*
X68911Y144896D01*
X69160Y144729D01*
Y124168D01*
X68911Y124002D01*
X68433Y123286D01*
X68265Y122441D01*
X68433Y121596D01*
X68911Y120880D01*
X69628Y120401D01*
X70472Y120233D01*
X71317Y120401D01*
X72034Y120880D01*
X72512Y121596D01*
X72680Y122441D01*
X72512Y123286D01*
X72034Y124002D01*
X71785Y124168D01*
Y144729D01*
X72034Y144896D01*
X72512Y145612D01*
X72680Y146457D01*
X72512Y147302D01*
X72034Y148018D01*
X71317Y148496D01*
X70472Y148664D01*
D02*
G37*
G36*
X32183Y123074D02*
X31338Y122906D01*
X30622Y122427D01*
X30143Y121711D01*
X29975Y120866D01*
X30143Y120021D01*
X30622Y119305D01*
X31338Y118826D01*
X32183Y118658D01*
X32367Y118695D01*
X37095Y113967D01*
X37551Y113663D01*
X38088Y113556D01*
X136917D01*
X137022Y113400D01*
X137738Y112921D01*
X138583Y112753D01*
X139428Y112921D01*
X140144Y113400D01*
X140622Y114116D01*
X140790Y114961D01*
X140622Y115805D01*
X140144Y116522D01*
X139428Y117000D01*
X138583Y117168D01*
X137738Y117000D01*
X137022Y116522D01*
X136917Y116366D01*
X38670D01*
X34354Y120682D01*
X34391Y120866D01*
X34222Y121711D01*
X33744Y122427D01*
X33028Y122906D01*
X32183Y123074D01*
D02*
G37*
%LPD*%
D11*
X64567Y124016D02*
Y146457D01*
X108760Y262442D02*
Y263757D01*
X107874Y261556D02*
X108760Y262442D01*
X107874Y261024D02*
Y261556D01*
X105981Y266535D02*
X108760Y263757D01*
X100787Y266535D02*
X105981D01*
X97244Y262992D02*
X100787Y266535D01*
X97244Y220401D02*
Y262992D01*
X69291Y192448D02*
X97244Y220401D01*
X69291Y175443D02*
Y192448D01*
X68311Y174463D02*
X69291Y175443D01*
X68311Y171962D02*
Y174463D01*
X68253Y171904D02*
X68311Y171962D01*
X110531Y262442D02*
X111417Y261556D01*
X110531Y262442D02*
Y264491D01*
X111417Y261024D02*
Y261556D01*
X100054Y268307D02*
X106715D01*
X95473Y263726D02*
X100054Y268307D01*
X106715D02*
X110531Y264491D01*
X95473Y221135D02*
Y263726D01*
X67520Y193182D02*
X95473Y221135D01*
X67520Y176177D02*
Y193182D01*
X65752Y174409D02*
X67520Y176177D01*
X65748Y174409D02*
X65752D01*
X71653Y166929D02*
Y185827D01*
X70079Y165354D02*
X71653Y166929D01*
X51968Y165354D02*
X70079D01*
X77165Y165748D02*
Y182677D01*
X72835Y161417D02*
X77165Y165748D01*
X54107Y161417D02*
X72835D01*
X19291Y140157D02*
X32847D01*
X7480Y151969D02*
X19291Y140157D01*
X7480Y151969D02*
Y166535D01*
X22047Y144095D02*
X30709D01*
X12992Y153150D02*
X22047Y144095D01*
X12992Y153150D02*
Y181575D01*
X30709Y144095D02*
X51968Y165354D01*
X32847Y140157D02*
X54107Y161417D01*
X71654Y163386D02*
X74410Y166142D01*
X53150Y163386D02*
X71654D01*
X31890Y142126D02*
X53150Y163386D01*
X87008Y156299D02*
X94899Y164190D01*
X55512Y156299D02*
X87008D01*
X35433Y136221D02*
X55512Y156299D01*
X94899Y164190D02*
Y188993D01*
X13780Y136221D02*
X35433D01*
X4331Y145669D02*
X13780Y136221D01*
X4331Y145669D02*
Y156299D01*
X8386Y175984D02*
Y176772D01*
Y175984D02*
X10236Y174134D01*
X8661Y185905D02*
X12992Y181575D01*
X71653Y185827D02*
X74410Y188583D01*
X74410Y166142D02*
Y184646D01*
X75590Y185827D01*
X50394Y183321D02*
X56223Y177491D01*
X50394Y183321D02*
Y211180D01*
X56957Y179263D02*
X61842D01*
X52165Y184055D02*
X56957Y179263D01*
X52165Y184055D02*
Y211914D01*
X48989Y215090D02*
X52165Y211914D01*
X45965Y215609D02*
X50394Y211180D01*
X48989Y215090D02*
X49508Y215609D01*
X48989Y215090D02*
Y215090D01*
X64961Y181751D02*
Y182283D01*
X64075Y180865D02*
X64961Y181751D01*
X64075Y178991D02*
Y180865D01*
X62576Y177491D02*
X64075Y178991D01*
X56223Y177491D02*
X62576D01*
X61417Y181751D02*
Y182283D01*
Y181751D02*
X62303Y180865D01*
Y179724D02*
Y180865D01*
X61842Y179263D02*
X62303Y179724D01*
X45965Y215609D02*
Y216142D01*
X49508Y215609D02*
Y216142D01*
X66142Y250537D02*
Y259198D01*
X37992Y222387D02*
X66142Y250537D01*
X67913Y249803D02*
Y259198D01*
X39764Y221654D02*
X67913Y249803D01*
X39764Y179921D02*
Y221654D01*
X37992Y179187D02*
Y222387D01*
X65633Y259708D02*
Y261041D01*
X65256Y261417D02*
X65633Y261041D01*
X68423D02*
X68799Y261417D01*
X67913Y259198D02*
X68423Y259708D01*
Y261041D01*
X65633Y259708D02*
X66142Y259198D01*
X37992Y179187D02*
X44400Y172779D01*
X39764Y179921D02*
X45134Y174551D01*
X48680Y171893D02*
X49213D01*
X47794Y172779D02*
X48680Y171893D01*
X44400Y172779D02*
X47794D01*
X48680Y175437D02*
X49213D01*
X47794Y174551D02*
X48680Y175437D01*
X45134Y174551D02*
X47794D01*
X94899Y188993D02*
X95276Y189370D01*
X85039Y182677D02*
Y186221D01*
X82677Y188583D02*
X85039Y186221D01*
X74410Y188583D02*
X82677D01*
X80709Y179528D02*
Y184252D01*
X79134Y185827D02*
X80709Y184252D01*
X75590Y185827D02*
X79134D01*
X20608Y142126D02*
X31890D01*
X10236Y152497D02*
Y174134D01*
Y152497D02*
X20608Y142126D01*
X70472Y122441D02*
Y146457D01*
D14*
X32183Y120866D02*
X38088Y114961D01*
X138583D01*
D34*
X111221Y56378D02*
D03*
Y96378D02*
D03*
X63385Y95984D02*
D03*
X81693Y55866D02*
D03*
Y85866D02*
D03*
X52165Y55866D02*
D03*
Y85866D02*
D03*
X22638Y55866D02*
D03*
Y85866D02*
D03*
D35*
X24291Y151220D02*
D03*
Y161220D02*
D03*
Y171220D02*
D03*
Y181220D02*
D03*
Y191220D02*
D03*
Y201220D02*
D03*
Y211220D02*
D03*
Y221220D02*
D03*
X114291Y201220D02*
D03*
Y191220D02*
D03*
Y221220D02*
D03*
Y211220D02*
D03*
Y181220D02*
D03*
Y171220D02*
D03*
Y161220D02*
D03*
Y151220D02*
D03*
D36*
X30512Y241830D02*
D03*
X107086Y129625D02*
D03*
D37*
X22638Y19686D02*
D03*
D38*
X52165D02*
D03*
X81693D02*
D03*
X111220D02*
D03*
D39*
X155512Y318898D02*
D03*
X175197D02*
D03*
X155512Y19685D02*
D03*
X175197D02*
D03*
D40*
X30906Y307087D02*
D03*
X16339D02*
D03*
X74213D02*
D03*
X59646D02*
D03*
X117520Y307087D02*
D03*
X102953D02*
D03*
D41*
X23622Y299213D02*
D03*
Y326378D02*
D03*
X66929Y299213D02*
D03*
Y326378D02*
D03*
X110236Y299213D02*
D03*
Y326378D02*
D03*
D44*
X132309Y63779D02*
Y82677D01*
Y54808D02*
Y63779D01*
X128683Y51181D02*
X132309Y54808D01*
X108268Y142126D02*
X129528D01*
X98425Y151969D02*
X108268Y142126D01*
X62205Y151969D02*
X98425D01*
X41339Y131102D02*
X62205Y151969D01*
X14567Y131102D02*
X41339D01*
D45*
X70472Y122441D02*
D03*
X32183Y120866D02*
D03*
X64567Y124016D02*
D03*
X128683Y51181D02*
D03*
X107874Y261024D02*
D03*
X111417D02*
D03*
X68253Y171904D02*
D03*
X65748Y174409D02*
D03*
X3937Y334646D02*
D03*
X11811Y334646D02*
D03*
X19685D02*
D03*
X27559D02*
D03*
X51181D02*
D03*
X43307D02*
D03*
X35433D02*
D03*
X74803D02*
D03*
X66929D02*
D03*
X59055D02*
D03*
X98425D02*
D03*
X90551D02*
D03*
X82677D02*
D03*
X122047D02*
D03*
X114173D02*
D03*
X106299D02*
D03*
X137795D02*
D03*
X129921D02*
D03*
X3937Y269801D02*
D03*
Y277906D02*
D03*
Y286012D02*
D03*
Y310329D02*
D03*
Y302223D02*
D03*
Y294118D02*
D03*
Y326540D02*
D03*
Y318434D02*
D03*
Y110236D02*
D03*
Y133858D02*
D03*
Y125984D02*
D03*
Y118110D02*
D03*
Y141732D02*
D03*
Y204956D02*
D03*
Y196850D02*
D03*
Y229273D02*
D03*
Y221167D02*
D03*
Y213062D02*
D03*
Y253590D02*
D03*
Y245484D02*
D03*
Y237378D02*
D03*
Y261695D02*
D03*
X188976Y257874D02*
D03*
Y234252D02*
D03*
Y242126D02*
D03*
Y250000D02*
D03*
Y210630D02*
D03*
Y218504D02*
D03*
Y226378D02*
D03*
Y187008D02*
D03*
Y194882D02*
D03*
Y202756D02*
D03*
Y163386D02*
D03*
Y171260D02*
D03*
Y179134D02*
D03*
Y139764D02*
D03*
Y147638D02*
D03*
Y155512D02*
D03*
Y116142D02*
D03*
Y124016D02*
D03*
Y131890D02*
D03*
Y108268D02*
D03*
X4331Y156299D02*
D03*
X7480Y166535D02*
D03*
X8386Y176772D02*
D03*
X8661Y185905D02*
D03*
X64961Y182283D02*
D03*
X61417D02*
D03*
X49508Y216142D02*
D03*
X45965D02*
D03*
X68799Y261417D02*
D03*
X65256D02*
D03*
X49213Y175437D02*
D03*
Y171893D02*
D03*
X138583Y114961D02*
D03*
X129528Y142126D02*
D03*
X14567Y131102D02*
D03*
X77165Y182677D02*
D03*
X80709Y179528D02*
D03*
X85039Y182677D02*
D03*
X95276Y189370D02*
D03*
X70472Y146457D02*
D03*
X64567D02*
D03*
D46*
X14763Y139753D02*
D03*
X60039Y203148D02*
D03*
X45079Y189764D02*
D03*
X132309Y63779D02*
D03*
X147441Y219291D02*
D03*
D47*
X111220Y54921D02*
X111811Y55512D01*
M02*
