G04*
G04 #@! TF.GenerationSoftware,Altium Limited,Altium Designer,19.0.14 (431)*
G04*
G04 Layer_Color=65535*
%FSLAX25Y25*%
%MOIN*%
G70*
G01*
G75*
%ADD10C,0.00787*%
%ADD11C,0.01000*%
%ADD12C,0.00984*%
%ADD13C,0.00500*%
%ADD14C,0.01181*%
D10*
X117716Y118897D02*
G03*
X119685Y120866I0J1969D01*
G01*
X27165D02*
G03*
X29134Y118897I1969J0D01*
G01*
X27165Y143307D02*
G03*
X25197Y145275I-1969J0D01*
G01*
X18898Y147244D02*
G03*
X20866Y145275I1969J0D01*
G01*
X119685Y239764D02*
G03*
X105905Y253543I-13780J0D01*
G01*
X32677D02*
G03*
X18898Y239764I0J-13780D01*
G01*
X17717Y342520D02*
G03*
X15748Y340551I0J-1969D01*
G01*
X31496Y340551D02*
G03*
X29528Y342520I-1969J-0D01*
G01*
X61024D02*
G03*
X59055Y340551I0J-1969D01*
G01*
X74803Y340551D02*
G03*
X72835Y342520I-1969J-0D01*
G01*
X104331Y342520D02*
G03*
X102362Y340551I0J-1969D01*
G01*
X118110Y340551D02*
G03*
X116142Y342520I-1969J-0D01*
G01*
X107220Y64378D02*
X115220D01*
X107220D02*
Y88378D01*
X115220D01*
Y64378D02*
Y88378D01*
X111221Y60378D02*
Y64378D01*
Y88378D02*
Y92378D01*
X59385Y63984D02*
X67385D01*
X59385D02*
Y87984D01*
X67385D01*
Y63984D02*
Y87984D01*
X63385Y59984D02*
Y63984D01*
Y87984D02*
Y91984D01*
X78543Y94980D02*
Y101870D01*
X84842Y94980D02*
Y101870D01*
X49016Y94980D02*
Y101870D01*
X55315Y94980D02*
Y101870D01*
X19488Y94980D02*
Y101870D01*
X25787Y94980D02*
Y101870D01*
X81693Y60866D02*
X84693D01*
Y80866D01*
X78693D02*
X84693D01*
X78693Y60866D02*
Y80866D01*
Y60866D02*
X81693D01*
Y80866D02*
Y81766D01*
Y59966D02*
Y60866D01*
X52165D02*
X55165D01*
Y80866D01*
X49165D02*
X55165D01*
X49165Y60866D02*
Y80866D01*
Y60866D02*
X52165D01*
Y80866D02*
Y81766D01*
Y59966D02*
Y60866D01*
X22638D02*
X25638D01*
Y80866D01*
X19638D02*
X25638D01*
X19638Y60866D02*
Y80866D01*
Y60866D02*
X22638D01*
Y80866D02*
Y81766D01*
Y59966D02*
Y60866D01*
X168899Y96457D02*
X169555D01*
X170867Y97769D01*
X169555Y99080D01*
X168899D01*
X170867Y97769D02*
X172835D01*
Y100392D02*
X168899D01*
Y102360D01*
X169555Y103016D01*
X170867D01*
X171523Y102360D01*
Y100392D01*
Y101704D02*
X172835Y103016D01*
X170867Y104328D02*
Y106952D01*
X169555Y108264D02*
X168899Y108920D01*
Y110232D01*
X169555Y110888D01*
X172179D01*
X172835Y110232D01*
Y108920D01*
X172179Y108264D01*
X169555D01*
X172835Y114167D02*
X168899D01*
X170867Y112200D01*
Y114823D01*
X172835Y116135D02*
Y117447D01*
Y116791D01*
X168899D01*
X169555Y116135D01*
X172179Y119415D02*
X172835Y120071D01*
Y121383D01*
X172179Y122039D01*
X169555D01*
X168899Y121383D01*
Y120071D01*
X169555Y119415D01*
X170211D01*
X170867Y120071D01*
Y122039D01*
X168899Y135158D02*
X171523D01*
X172835Y136470D01*
X171523Y137782D01*
X168899D01*
X172835Y139094D02*
Y140406D01*
Y139750D01*
X168899D01*
X169555Y139094D01*
X172835Y142374D02*
X172179D01*
Y143030D01*
X172835D01*
Y142374D01*
X169555Y145653D02*
X168899Y146309D01*
Y147621D01*
X169555Y148277D01*
X172179D01*
X172835Y147621D01*
Y146309D01*
X172179Y145653D01*
X169555D01*
X104999Y79717D02*
X102244D01*
Y81094D01*
X102703Y81554D01*
X103621D01*
X104080Y81094D01*
Y79717D01*
Y80635D02*
X104999Y81554D01*
X102703Y82472D02*
X102244Y82931D01*
Y83850D01*
X102703Y84309D01*
X103162D01*
X103621Y83850D01*
Y83390D01*
Y83850D01*
X104080Y84309D01*
X104539D01*
X104999Y83850D01*
Y82931D01*
X104539Y82472D01*
X102244Y87064D02*
X102703Y86145D01*
X103621Y85227D01*
X104539D01*
X104999Y85686D01*
Y86604D01*
X104539Y87064D01*
X104080D01*
X103621Y86604D01*
Y85227D01*
X158127Y287029D02*
X156291D01*
Y285651D01*
X157209D01*
X156291D01*
Y284274D01*
X160882Y287029D02*
X159964Y286570D01*
X159046Y285651D01*
Y284733D01*
X159505Y284274D01*
X160423D01*
X160882Y284733D01*
Y285192D01*
X160423Y285651D01*
X159046D01*
X134677Y279532D02*
Y277236D01*
X135136Y276777D01*
X136055D01*
X136514Y277236D01*
Y279532D01*
X137432Y276777D02*
X138350D01*
X137891D01*
Y279532D01*
X137432Y279073D01*
X32130Y258505D02*
Y256210D01*
X32589Y255750D01*
X33508D01*
X33967Y256210D01*
Y258505D01*
X36722Y255750D02*
X34885D01*
X36722Y257587D01*
Y258046D01*
X36263Y258505D01*
X35344D01*
X34885Y258046D01*
X134234Y30116D02*
X131479D01*
Y31494D01*
X131938Y31953D01*
X132857D01*
X133316Y31494D01*
Y30116D01*
Y31035D02*
X134234Y31953D01*
X131479Y34708D02*
Y32871D01*
X132857D01*
X132397Y33790D01*
Y34249D01*
X132857Y34708D01*
X133775D01*
X134234Y34249D01*
Y33331D01*
X133775Y32871D01*
X134234Y35626D02*
Y36545D01*
Y36086D01*
X131479D01*
X131938Y35626D01*
X7891Y173797D02*
Y176552D01*
X9268D01*
X9727Y176093D01*
Y175175D01*
X9268Y174716D01*
X7891D01*
X8809D02*
X9727Y173797D01*
X10646Y176552D02*
X12482D01*
Y176093D01*
X10646Y174257D01*
Y173797D01*
X7435Y184075D02*
Y186830D01*
X8812D01*
X9271Y186371D01*
Y185452D01*
X8812Y184993D01*
X7435D01*
X8353D02*
X9271Y184075D01*
X12026Y186830D02*
X11108Y186371D01*
X10190Y185452D01*
Y184534D01*
X10649Y184075D01*
X11567D01*
X12026Y184534D01*
Y184993D01*
X11567Y185452D01*
X10190D01*
X125160Y194275D02*
Y197030D01*
X126537D01*
X126997Y196571D01*
Y195652D01*
X126537Y195193D01*
X125160D01*
X126078D02*
X126997Y194275D01*
X129752Y197030D02*
X127915D01*
Y195652D01*
X128833Y196112D01*
X129292D01*
X129752Y195652D01*
Y194734D01*
X129292Y194275D01*
X128374D01*
X127915Y194734D01*
X125160Y214563D02*
Y217318D01*
X126537D01*
X126997Y216859D01*
Y215940D01*
X126537Y215481D01*
X125160D01*
X126078D02*
X126997Y214563D01*
X129752D02*
X127915D01*
X129752Y216400D01*
Y216859D01*
X129292Y217318D01*
X128374D01*
X127915Y216859D01*
X7916Y164253D02*
Y167008D01*
X9293D01*
X9752Y166548D01*
Y165630D01*
X9293Y165171D01*
X7916D01*
X8834D02*
X9752Y164253D01*
X10671Y166548D02*
X11130Y167008D01*
X12048D01*
X12507Y166548D01*
Y166089D01*
X12048Y165630D01*
X12507Y165171D01*
Y164712D01*
X12048Y164253D01*
X11130D01*
X10671Y164712D01*
Y165171D01*
X11130Y165630D01*
X10671Y166089D01*
Y166548D01*
X11130Y165630D02*
X12048D01*
X126403Y224643D02*
Y227398D01*
X127781D01*
X128240Y226939D01*
Y226021D01*
X127781Y225562D01*
X126403D01*
X127322D02*
X128240Y224643D01*
X129158D02*
X130077D01*
X129617D01*
Y227398D01*
X129158Y226939D01*
X125616Y204372D02*
Y207127D01*
X126993D01*
X127452Y206668D01*
Y205749D01*
X126993Y205290D01*
X125616D01*
X126534D02*
X127452Y204372D01*
X128371Y206668D02*
X128830Y207127D01*
X129748D01*
X130208Y206668D01*
Y206209D01*
X129748Y205749D01*
X129289D01*
X129748D01*
X130208Y205290D01*
Y204831D01*
X129748Y204372D01*
X128830D01*
X128371Y204831D01*
X7435Y193569D02*
Y196324D01*
X8812D01*
X9271Y195864D01*
Y194946D01*
X8812Y194487D01*
X7435D01*
X8353D02*
X9271Y193569D01*
X11567D02*
Y196324D01*
X10190Y194946D01*
X12026D01*
X130911Y7302D02*
X133666D01*
Y9139D01*
X130911Y11894D02*
Y10057D01*
X133666D01*
Y11894D01*
X132288Y10057D02*
Y10976D01*
X130911Y12812D02*
X133666D01*
Y14190D01*
X133207Y14649D01*
X131370D01*
X130911Y14190D01*
Y12812D01*
X133666Y15567D02*
Y16486D01*
Y16027D01*
X130911D01*
X131370Y15567D01*
X186878Y319341D02*
Y318423D01*
Y318882D01*
X189174D01*
X189633Y318423D01*
Y317964D01*
X189174Y317505D01*
X189633Y322096D02*
Y320260D01*
X187796Y322096D01*
X187337D01*
X186878Y321637D01*
Y320719D01*
X187337Y320260D01*
X186534Y17745D02*
Y16827D01*
Y17286D01*
X188830D01*
X189289Y16827D01*
Y16368D01*
X188830Y15909D01*
X189289Y18664D02*
Y19582D01*
Y19123D01*
X186534D01*
X186993Y18664D01*
X140443Y219505D02*
Y217669D01*
X141821D01*
Y218587D01*
Y217669D01*
X143198D01*
Y220424D02*
Y221342D01*
Y220883D01*
X140443D01*
X140903Y220424D01*
X8401Y139604D02*
Y137767D01*
X9778D01*
Y138686D01*
Y137767D01*
X11156D01*
Y142359D02*
Y140522D01*
X9319Y142359D01*
X8860D01*
X8401Y141900D01*
Y140981D01*
X8860Y140522D01*
X157578Y207686D02*
X157119Y208145D01*
X156201D01*
X155742Y207686D01*
Y205849D01*
X156201Y205390D01*
X157119D01*
X157578Y205849D01*
X160333Y205390D02*
X158497D01*
X160333Y207226D01*
Y207686D01*
X159874Y208145D01*
X158956D01*
X158497Y207686D01*
X167969Y195548D02*
X167510Y195089D01*
Y194170D01*
X167969Y193711D01*
X169806D01*
X170265Y194170D01*
Y195089D01*
X169806Y195548D01*
X170265Y196466D02*
Y197385D01*
Y196925D01*
X167510D01*
X167969Y196466D01*
X10078Y156227D02*
X9618Y156686D01*
X8700D01*
X8241Y156227D01*
Y154390D01*
X8700Y153931D01*
X9618D01*
X10078Y154390D01*
X10996Y156227D02*
X11455Y156686D01*
X12374D01*
X12833Y156227D01*
Y155767D01*
X12374Y155308D01*
X11914D01*
X12374D01*
X12833Y154849D01*
Y154390D01*
X12374Y153931D01*
X11455D01*
X10996Y154390D01*
X88450Y135880D02*
Y135421D01*
X89368Y134502D01*
X90286Y135421D01*
Y135880D01*
X89368Y134502D02*
Y133125D01*
X91205D02*
X92123D01*
X91664D01*
Y135880D01*
X91205Y135421D01*
X55761Y153646D02*
X58057D01*
X58516Y154105D01*
Y155023D01*
X58057Y155482D01*
X55761D01*
X56220Y156401D02*
X55761Y156860D01*
Y157778D01*
X56220Y158237D01*
X56679D01*
X57138Y157778D01*
Y157319D01*
Y157778D01*
X57597Y158237D01*
X58057D01*
X58516Y157778D01*
Y156860D01*
X58057Y156401D01*
X153906Y107951D02*
Y110706D01*
X155284D01*
X155743Y110247D01*
Y109329D01*
X155284Y108870D01*
X153906D01*
X154824D02*
X155743Y107951D01*
X158498Y110706D02*
X156661D01*
Y109329D01*
X157580Y109788D01*
X158039D01*
X158498Y109329D01*
Y108411D01*
X158039Y107951D01*
X157120D01*
X156661Y108411D01*
X159416Y110247D02*
X159875Y110706D01*
X160794D01*
X161253Y110247D01*
Y109788D01*
X160794Y109329D01*
X160335D01*
X160794D01*
X161253Y108870D01*
Y108411D01*
X160794Y107951D01*
X159875D01*
X159416Y108411D01*
X153934Y113836D02*
Y116591D01*
X155312D01*
X155771Y116132D01*
Y115214D01*
X155312Y114755D01*
X153934D01*
X154852D02*
X155771Y113836D01*
X158526Y116591D02*
X156689D01*
Y115214D01*
X157607Y115673D01*
X158067D01*
X158526Y115214D01*
Y114295D01*
X158067Y113836D01*
X157148D01*
X156689Y114295D01*
X161281Y113836D02*
X159444D01*
X161281Y115673D01*
Y116132D01*
X160822Y116591D01*
X159903D01*
X159444Y116132D01*
X103906Y271108D02*
X101151D01*
Y272485D01*
X101611Y272945D01*
X102529D01*
X102988Y272485D01*
Y271108D01*
Y272026D02*
X103906Y272945D01*
X101151Y275700D02*
Y273863D01*
X102529D01*
X102070Y274781D01*
Y275240D01*
X102529Y275700D01*
X103447D01*
X103906Y275240D01*
Y274322D01*
X103447Y273863D01*
X101611Y276618D02*
X101151Y277077D01*
Y277995D01*
X101611Y278455D01*
X103447D01*
X103906Y277995D01*
Y277077D01*
X103447Y276618D01*
X101611D01*
X61161Y271440D02*
X58406D01*
Y272818D01*
X58865Y273277D01*
X59783D01*
X60242Y272818D01*
Y271440D01*
Y272358D02*
X61161Y273277D01*
Y275573D02*
X58406D01*
X59783Y274195D01*
Y276032D01*
X58406Y278787D02*
X58865Y277869D01*
X59783Y276950D01*
X60702D01*
X61161Y277409D01*
Y278328D01*
X60702Y278787D01*
X60242D01*
X59783Y278328D01*
Y276950D01*
X91114Y281771D02*
Y284526D01*
X92491D01*
X92950Y284067D01*
Y283149D01*
X92491Y282690D01*
X91114D01*
X92032D02*
X92950Y281771D01*
X95246D02*
Y284526D01*
X93869Y283149D01*
X95705D01*
X96624Y282230D02*
X97083Y281771D01*
X98001D01*
X98461Y282230D01*
Y284067D01*
X98001Y284526D01*
X97083D01*
X96624Y284067D01*
Y283608D01*
X97083Y283149D01*
X98461D01*
X47974Y281935D02*
Y284690D01*
X49351D01*
X49810Y284231D01*
Y283313D01*
X49351Y282854D01*
X47974D01*
X48892D02*
X49810Y281935D01*
X52106D02*
Y284690D01*
X50729Y283313D01*
X52565D01*
X55321Y284690D02*
X53484D01*
Y283313D01*
X54402Y283772D01*
X54861D01*
X55321Y283313D01*
Y282394D01*
X54861Y281935D01*
X53943D01*
X53484Y282394D01*
X18102Y272028D02*
X15347D01*
Y273405D01*
X15806Y273864D01*
X16725D01*
X17184Y273405D01*
Y272028D01*
Y272946D02*
X18102Y273864D01*
Y276160D02*
X15347D01*
X16725Y274783D01*
Y276619D01*
X18102Y279374D02*
Y277538D01*
X16265Y279374D01*
X15806D01*
X15347Y278915D01*
Y277997D01*
X15806Y277538D01*
X122208Y281918D02*
Y284673D01*
X123585D01*
X124044Y284214D01*
Y283296D01*
X123585Y282837D01*
X122208D01*
X123126D02*
X124044Y281918D01*
X126340D02*
Y284673D01*
X124963Y283296D01*
X126799D01*
X127718Y284214D02*
X128177Y284673D01*
X129095D01*
X129554Y284214D01*
Y283755D01*
X129095Y283296D01*
X129554Y282837D01*
Y282377D01*
X129095Y281918D01*
X128177D01*
X127718Y282377D01*
Y282837D01*
X128177Y283296D01*
X127718Y283755D01*
Y284214D01*
X128177Y283296D02*
X129095D01*
X79648Y281880D02*
Y284635D01*
X81025D01*
X81485Y284176D01*
Y283258D01*
X81025Y282799D01*
X79648D01*
X80566D02*
X81485Y281880D01*
X83780D02*
Y284635D01*
X82403Y283258D01*
X84240D01*
X86536Y281880D02*
Y284635D01*
X85158Y283258D01*
X86995D01*
X5731Y282365D02*
Y285120D01*
X7108D01*
X7568Y284661D01*
Y283742D01*
X7108Y283283D01*
X5731D01*
X6649D02*
X7568Y282365D01*
X9864D02*
Y285120D01*
X8486Y283742D01*
X10323D01*
X11241Y282365D02*
X12159D01*
X11700D01*
Y285120D01*
X11241Y284661D01*
X118492Y271015D02*
X115737D01*
Y272393D01*
X116196Y272852D01*
X117115D01*
X117574Y272393D01*
Y271015D01*
Y271933D02*
X118492Y272852D01*
Y275148D02*
X115737D01*
X117115Y273770D01*
Y275607D01*
X115737Y276525D02*
Y278362D01*
X116196D01*
X118033Y276525D01*
X118492D01*
X76249Y271236D02*
X73494D01*
Y272613D01*
X73954Y273072D01*
X74872D01*
X75331Y272613D01*
Y271236D01*
Y272154D02*
X76249Y273072D01*
Y275368D02*
X73494D01*
X74872Y273991D01*
Y275827D01*
X73954Y276746D02*
X73494Y277205D01*
Y278123D01*
X73954Y278582D01*
X74413D01*
X74872Y278123D01*
Y277664D01*
Y278123D01*
X75331Y278582D01*
X75790D01*
X76249Y278123D01*
Y277205D01*
X75790Y276746D01*
X36363Y282083D02*
Y284838D01*
X37740D01*
X38200Y284379D01*
Y283461D01*
X37740Y283002D01*
X36363D01*
X37281D02*
X38200Y282083D01*
X39118Y284379D02*
X39577Y284838D01*
X40495D01*
X40955Y284379D01*
Y283920D01*
X40495Y283461D01*
X40036D01*
X40495D01*
X40955Y283002D01*
Y282542D01*
X40495Y282083D01*
X39577D01*
X39118Y282542D01*
X41873D02*
X42332Y282083D01*
X43251D01*
X43710Y282542D01*
Y284379D01*
X43251Y284838D01*
X42332D01*
X41873Y284379D01*
Y283920D01*
X42332Y283461D01*
X43710D01*
X33084Y271824D02*
X30329D01*
Y273201D01*
X30788Y273660D01*
X31707D01*
X32166Y273201D01*
Y271824D01*
Y272742D02*
X33084Y273660D01*
X30788Y274579D02*
X30329Y275038D01*
Y275956D01*
X30788Y276415D01*
X31248D01*
X31707Y275956D01*
Y275497D01*
Y275956D01*
X32166Y276415D01*
X32625D01*
X33084Y275956D01*
Y275038D01*
X32625Y274579D01*
X30788Y277334D02*
X30329Y277793D01*
Y278711D01*
X30788Y279170D01*
X31248D01*
X31707Y278711D01*
X32166Y279170D01*
X32625D01*
X33084Y278711D01*
Y277793D01*
X32625Y277334D01*
X32166D01*
X31707Y277793D01*
X31248Y277334D01*
X30788D01*
X31707Y277793D02*
Y278711D01*
X72304Y80492D02*
X69550D01*
Y81870D01*
X70009Y82329D01*
X70927D01*
X71386Y81870D01*
Y80492D01*
Y81411D02*
X72304Y82329D01*
X70009Y83247D02*
X69550Y83706D01*
Y84625D01*
X70009Y85084D01*
X70468D01*
X70927Y84625D01*
Y84166D01*
Y84625D01*
X71386Y85084D01*
X71845D01*
X72304Y84625D01*
Y83706D01*
X71845Y83247D01*
X69550Y86002D02*
Y87839D01*
X70009D01*
X71845Y86002D01*
X72304D01*
X76336Y94878D02*
X73581D01*
Y96255D01*
X74040Y96715D01*
X74958D01*
X75417Y96255D01*
Y94878D01*
Y95796D02*
X76336Y96715D01*
Y97633D02*
Y98551D01*
Y98092D01*
X73581D01*
X74040Y97633D01*
Y99929D02*
X73581Y100388D01*
Y101306D01*
X74040Y101766D01*
X74499D01*
X74958Y101306D01*
X75417Y101766D01*
X75876D01*
X76336Y101306D01*
Y100388D01*
X75876Y99929D01*
X75417D01*
X74958Y100388D01*
X74499Y99929D01*
X74040D01*
X74958Y100388D02*
Y101306D01*
X47182Y94878D02*
X44427D01*
Y96255D01*
X44886Y96715D01*
X45805D01*
X46264Y96255D01*
Y94878D01*
Y95796D02*
X47182Y96715D01*
Y97633D02*
Y98551D01*
Y98092D01*
X44427D01*
X44886Y97633D01*
X44427Y99929D02*
Y101766D01*
X44886D01*
X46723Y99929D01*
X47182D01*
X17146Y94878D02*
X14391D01*
Y96255D01*
X14851Y96715D01*
X15769D01*
X16228Y96255D01*
Y94878D01*
Y95796D02*
X17146Y96715D01*
Y97633D02*
Y98551D01*
Y98092D01*
X14391D01*
X14851Y97633D01*
X14391Y101766D02*
X14851Y100847D01*
X15769Y99929D01*
X16687D01*
X17146Y100388D01*
Y101306D01*
X16687Y101766D01*
X16228D01*
X15769Y101306D01*
Y99929D01*
X75958Y56073D02*
X73203D01*
Y57451D01*
X73662Y57910D01*
X74580D01*
X75039Y57451D01*
Y56073D01*
Y56991D02*
X75958Y57910D01*
Y58828D02*
Y59746D01*
Y59287D01*
X73203D01*
X73662Y58828D01*
X75958Y61124D02*
Y62042D01*
Y61583D01*
X73203D01*
X73662Y61124D01*
X46834Y55896D02*
X44080D01*
Y57273D01*
X44539Y57732D01*
X45457D01*
X45916Y57273D01*
Y55896D01*
Y56814D02*
X46834Y57732D01*
Y58651D02*
Y59569D01*
Y59110D01*
X44080D01*
X44539Y58651D01*
Y60947D02*
X44080Y61406D01*
Y62324D01*
X44539Y62783D01*
X46375D01*
X46834Y62324D01*
Y61406D01*
X46375Y60947D01*
X44539D01*
X30821Y57657D02*
X28066D01*
Y59035D01*
X28525Y59494D01*
X29444D01*
X29903Y59035D01*
Y57657D01*
Y58576D02*
X30821Y59494D01*
X30362Y60413D02*
X30821Y60872D01*
Y61790D01*
X30362Y62249D01*
X28525D01*
X28066Y61790D01*
Y60872D01*
X28525Y60413D01*
X28984D01*
X29444Y60872D01*
Y62249D01*
X58419Y126776D02*
X55664D01*
Y128153D01*
X56123Y128612D01*
X57042D01*
X57501Y128153D01*
Y126776D01*
Y127694D02*
X58419Y128612D01*
X56123Y129531D02*
X55664Y129990D01*
Y130908D01*
X56123Y131368D01*
X56582D01*
X57042Y130908D01*
Y130449D01*
Y130908D01*
X57501Y131368D01*
X57960D01*
X58419Y130908D01*
Y129990D01*
X57960Y129531D01*
X58419Y133663D02*
X55664D01*
X57042Y132286D01*
Y134123D01*
X78999Y126713D02*
X76244D01*
Y128091D01*
X76704Y128550D01*
X77622D01*
X78081Y128091D01*
Y126713D01*
Y127631D02*
X78999Y128550D01*
X76704Y129468D02*
X76244Y129927D01*
Y130845D01*
X76704Y131305D01*
X77163D01*
X77622Y130845D01*
Y130386D01*
Y130845D01*
X78081Y131305D01*
X78540D01*
X78999Y130845D01*
Y129927D01*
X78540Y129468D01*
X76704Y132223D02*
X76244Y132682D01*
Y133600D01*
X76704Y134060D01*
X77163D01*
X77622Y133600D01*
Y133141D01*
Y133600D01*
X78081Y134060D01*
X78540D01*
X78999Y133600D01*
Y132682D01*
X78540Y132223D01*
X68837Y126153D02*
X66082D01*
Y127530D01*
X66541Y127989D01*
X67459D01*
X67918Y127530D01*
Y126153D01*
Y127071D02*
X68837Y127989D01*
X66541Y128908D02*
X66082Y129367D01*
Y130285D01*
X66541Y130745D01*
X67000D01*
X67459Y130285D01*
Y129826D01*
Y130285D01*
X67918Y130745D01*
X68378D01*
X68837Y130285D01*
Y129367D01*
X68378Y128908D01*
X68837Y133500D02*
Y131663D01*
X67000Y133500D01*
X66541D01*
X66082Y133040D01*
Y132122D01*
X66541Y131663D01*
X70268Y212881D02*
Y215636D01*
X71645D01*
X72104Y215177D01*
Y214259D01*
X71645Y213800D01*
X70268D01*
X71186D02*
X72104Y212881D01*
X74400D02*
Y215636D01*
X73023Y214259D01*
X74859D01*
X75778Y215177D02*
X76237Y215636D01*
X77155D01*
X77614Y215177D01*
Y213340D01*
X77155Y212881D01*
X76237D01*
X75778Y213340D01*
Y215177D01*
X157930Y97543D02*
Y99379D01*
X157471Y99839D01*
X156553D01*
X156094Y99379D01*
Y97543D01*
X156553Y97083D01*
X157471D01*
X157012Y98002D02*
X157930Y97083D01*
X157471D02*
X157930Y97543D01*
X158849Y97083D02*
X159767D01*
X159308D01*
Y99839D01*
X158849Y99379D01*
X184014Y68512D02*
X186769D01*
X185851D01*
X184014Y70349D01*
X185392Y68971D01*
X186769Y70349D01*
Y71267D02*
Y72185D01*
Y71726D01*
X184014D01*
X184473Y71267D01*
X3263Y35837D02*
Y34918D01*
Y35377D01*
X5559D01*
X6018Y34918D01*
Y34459D01*
X5559Y34000D01*
X3722Y36755D02*
X3263Y37214D01*
Y38133D01*
X3722Y38592D01*
X4181D01*
X4641Y38133D01*
Y37673D01*
Y38133D01*
X5100Y38592D01*
X5559D01*
X6018Y38133D01*
Y37214D01*
X5559Y36755D01*
X103127Y294894D02*
X104045D01*
X103586D01*
Y297190D01*
X104045Y297649D01*
X104505D01*
X104964Y297190D01*
X100372Y294894D02*
X101290Y295353D01*
X102209Y296272D01*
Y297190D01*
X101750Y297649D01*
X100831D01*
X100372Y297190D01*
Y296731D01*
X100831Y296272D01*
X102209D01*
X58800Y295288D02*
X59719D01*
X59259D01*
Y297584D01*
X59719Y298043D01*
X60178D01*
X60637Y297584D01*
X56045Y295288D02*
X57882D01*
Y296666D01*
X56964Y296207D01*
X56504D01*
X56045Y296666D01*
Y297584D01*
X56504Y298043D01*
X57423D01*
X57882Y297584D01*
X15442Y295012D02*
X16360D01*
X15901D01*
Y297308D01*
X16360Y297767D01*
X16819D01*
X17278Y297308D01*
X13146Y297767D02*
Y295012D01*
X14523Y296390D01*
X12687D01*
X123739Y64852D02*
X121902D01*
Y63475D01*
X122821D01*
X121902D01*
Y62097D01*
X126494Y64852D02*
X124657D01*
Y63475D01*
X125576Y63934D01*
X126035D01*
X126494Y63475D01*
Y62556D01*
X126035Y62097D01*
X125117D01*
X124657Y62556D01*
X51143Y204598D02*
X49307D01*
Y203220D01*
X50225D01*
X49307D01*
Y201842D01*
X53439D02*
Y204598D01*
X52062Y203220D01*
X53899D01*
X36835Y191172D02*
X34998D01*
Y189795D01*
X35917D01*
X34998D01*
Y188417D01*
X37753Y190713D02*
X38212Y191172D01*
X39131D01*
X39590Y190713D01*
Y190254D01*
X39131Y189795D01*
X38672D01*
X39131D01*
X39590Y189336D01*
Y188876D01*
X39131Y188417D01*
X38212D01*
X37753Y188876D01*
X128505Y73441D02*
X131260D01*
Y74819D01*
X130801Y75278D01*
X128964D01*
X128505Y74819D01*
Y73441D01*
X131260Y76196D02*
Y77115D01*
Y76656D01*
X128505D01*
X128964Y76196D01*
X119752Y57006D02*
X119293Y57465D01*
X118375D01*
X117915Y57006D01*
Y55169D01*
X118375Y54710D01*
X119293D01*
X119752Y55169D01*
X122507Y54710D02*
X120670D01*
X122507Y56547D01*
Y57006D01*
X122048Y57465D01*
X121130D01*
X120670Y57006D01*
X123425D02*
X123884Y57465D01*
X124803D01*
X125262Y57006D01*
Y56547D01*
X124803Y56088D01*
X124344D01*
X124803D01*
X125262Y55629D01*
Y55169D01*
X124803Y54710D01*
X123884D01*
X123425Y55169D01*
X93179Y267689D02*
X92720Y268148D01*
X91802D01*
X91343Y267689D01*
Y265852D01*
X91802Y265393D01*
X92720D01*
X93179Y265852D01*
X95934Y265393D02*
X94098D01*
X95934Y267230D01*
Y267689D01*
X95475Y268148D01*
X94557D01*
X94098Y267689D01*
X98689Y265393D02*
X96853D01*
X98689Y267230D01*
Y267689D01*
X98230Y268148D01*
X97312D01*
X96853Y267689D01*
X51012Y267670D02*
X50553Y268129D01*
X49635D01*
X49175Y267670D01*
Y265833D01*
X49635Y265374D01*
X50553D01*
X51012Y265833D01*
X51930Y265374D02*
X52849D01*
X52390D01*
Y268129D01*
X51930Y267670D01*
X55604Y265374D02*
Y268129D01*
X54226Y266752D01*
X56063D01*
X122717Y267696D02*
X122258Y268155D01*
X121339D01*
X120880Y267696D01*
Y265859D01*
X121339Y265400D01*
X122258D01*
X122717Y265859D01*
X123635Y265400D02*
X124554D01*
X124094D01*
Y268155D01*
X123635Y267696D01*
X125931Y265859D02*
X126390Y265400D01*
X127309D01*
X127768Y265859D01*
Y267696D01*
X127309Y268155D01*
X126390D01*
X125931Y267696D01*
Y267236D01*
X126390Y266777D01*
X127768D01*
X80120Y267696D02*
X79660Y268155D01*
X78742D01*
X78283Y267696D01*
Y265859D01*
X78742Y265400D01*
X79660D01*
X80120Y265859D01*
X81038Y265400D02*
X81956D01*
X81497D01*
Y268155D01*
X81038Y267696D01*
X83334D02*
X83793Y268155D01*
X84711D01*
X85170Y267696D01*
Y267237D01*
X84711Y266777D01*
X84252D01*
X84711D01*
X85170Y266318D01*
Y265859D01*
X84711Y265400D01*
X83793D01*
X83334Y265859D01*
X8759Y267894D02*
X8300Y268353D01*
X7381D01*
X6922Y267894D01*
Y266057D01*
X7381Y265598D01*
X8300D01*
X8759Y266057D01*
X9677Y265598D02*
X10595D01*
X10136D01*
Y268353D01*
X9677Y267894D01*
X11973Y265598D02*
X12891D01*
X12432D01*
Y268353D01*
X11973Y267894D01*
X37003Y267917D02*
X36544Y268376D01*
X35625D01*
X35166Y267917D01*
Y266080D01*
X35625Y265621D01*
X36544D01*
X37003Y266080D01*
X37921Y265621D02*
X38840D01*
X38381D01*
Y268376D01*
X37921Y267917D01*
X40217D02*
X40676Y268376D01*
X41595D01*
X42054Y267917D01*
Y266080D01*
X41595Y265621D01*
X40676D01*
X40217Y266080D01*
Y267917D01*
X76912Y113116D02*
X76453Y113575D01*
X75534D01*
X75075Y113116D01*
Y111279D01*
X75534Y110820D01*
X76453D01*
X76912Y111279D01*
X77830D02*
X78289Y110820D01*
X79208D01*
X79667Y111279D01*
Y113116D01*
X79208Y113575D01*
X78289D01*
X77830Y113116D01*
Y112656D01*
X78289Y112197D01*
X79667D01*
X40062Y113116D02*
X39603Y113575D01*
X38685D01*
X38225Y113116D01*
Y111279D01*
X38685Y110820D01*
X39603D01*
X40062Y111279D01*
X42817Y113575D02*
X40980D01*
Y112197D01*
X41899Y112656D01*
X42358D01*
X42817Y112197D01*
Y111279D01*
X42358Y110820D01*
X41440D01*
X40980Y111279D01*
X18042Y113116D02*
X17583Y113575D01*
X16665D01*
X16206Y113116D01*
Y111279D01*
X16665Y110820D01*
X17583D01*
X18042Y111279D01*
X20338Y110820D02*
Y113575D01*
X18961Y112197D01*
X20798D01*
X45893Y148097D02*
X45434Y147638D01*
Y146720D01*
X45893Y146261D01*
X47730D01*
X48189Y146720D01*
Y147638D01*
X47730Y148097D01*
X48189Y149016D02*
Y149934D01*
Y149475D01*
X45434D01*
X45893Y149016D01*
X45434Y153148D02*
X45893Y152230D01*
X46811Y151312D01*
X47730D01*
X48189Y151771D01*
Y152689D01*
X47730Y153148D01*
X47270D01*
X46811Y152689D01*
Y151312D01*
X38963Y150229D02*
X38504Y149770D01*
Y148852D01*
X38963Y148393D01*
X40800D01*
X41259Y148852D01*
Y149770D01*
X40800Y150229D01*
X41259Y151148D02*
Y152066D01*
Y151607D01*
X38504D01*
X38963Y151148D01*
X38504Y155280D02*
Y153444D01*
X39882D01*
X39422Y154362D01*
Y154821D01*
X39882Y155280D01*
X40800D01*
X41259Y154821D01*
Y153903D01*
X40800Y153444D01*
X61776Y131232D02*
X61317Y130772D01*
Y129854D01*
X61776Y129395D01*
X63613D01*
X64072Y129854D01*
Y130772D01*
X63613Y131232D01*
X61317Y132150D02*
Y133987D01*
X61776D01*
X63613Y132150D01*
X64072D01*
X49075Y196786D02*
X48616Y197246D01*
X47697D01*
X47238Y196786D01*
Y194950D01*
X47697Y194491D01*
X48616D01*
X49075Y194950D01*
X51830Y194491D02*
X49993D01*
X51830Y196327D01*
Y196786D01*
X51371Y197246D01*
X50452D01*
X49993Y196786D01*
X52748Y194491D02*
X53666D01*
X53207D01*
Y197246D01*
X52748Y196786D01*
X85873Y197792D02*
X85413Y198251D01*
X84495D01*
X84036Y197792D01*
Y195955D01*
X84495Y195496D01*
X85413D01*
X85873Y195955D01*
X88627Y195496D02*
X86791D01*
X88627Y197333D01*
Y197792D01*
X88168Y198251D01*
X87250D01*
X86791Y197792D01*
X89546D02*
X90005Y198251D01*
X90923D01*
X91382Y197792D01*
Y195955D01*
X90923Y195496D01*
X90005D01*
X89546Y195955D01*
Y197792D01*
X78793Y203902D02*
X78334Y204361D01*
X77415D01*
X76956Y203902D01*
Y202066D01*
X77415Y201606D01*
X78334D01*
X78793Y202066D01*
X79711Y201606D02*
X80629D01*
X80170D01*
Y204361D01*
X79711Y203902D01*
X82007D02*
X82466Y204361D01*
X83385D01*
X83844Y203902D01*
Y203443D01*
X83385Y202984D01*
X83844Y202525D01*
Y202066D01*
X83385Y201606D01*
X82466D01*
X82007Y202066D01*
Y202525D01*
X82466Y202984D01*
X82007Y203443D01*
Y203902D01*
X82466Y202984D02*
X83385D01*
X33360Y183012D02*
X32901Y183471D01*
X31982D01*
X31523Y183012D01*
Y181175D01*
X31982Y180716D01*
X32901D01*
X33360Y181175D01*
X34278Y180716D02*
X35197D01*
X34738D01*
Y183471D01*
X34278Y183012D01*
X36574Y183471D02*
X38411D01*
Y183012D01*
X36574Y181175D01*
Y180716D01*
X51583Y131480D02*
X51124Y131021D01*
Y130102D01*
X51583Y129643D01*
X53420D01*
X53879Y130102D01*
Y131021D01*
X53420Y131480D01*
X51124Y134235D02*
X51583Y133317D01*
X52501Y132398D01*
X53420D01*
X53879Y132857D01*
Y133776D01*
X53420Y134235D01*
X52960D01*
X52501Y133776D01*
Y132398D01*
X71601Y131230D02*
X71142Y130771D01*
Y129853D01*
X71601Y129394D01*
X73438D01*
X73897Y129853D01*
Y130771D01*
X73438Y131230D01*
X71601Y132149D02*
X71142Y132608D01*
Y133526D01*
X71601Y133985D01*
X72060D01*
X72519Y133526D01*
X72978Y133985D01*
X73438D01*
X73897Y133526D01*
Y132608D01*
X73438Y132149D01*
X72978D01*
X72519Y132608D01*
X72060Y132149D01*
X71601D01*
X72519Y132608D02*
Y133526D01*
X83660Y215688D02*
X83201Y216147D01*
X82282D01*
X81823Y215688D01*
Y213851D01*
X82282Y213392D01*
X83201D01*
X83660Y213851D01*
X84578Y213392D02*
X85497D01*
X85037D01*
Y216147D01*
X84578Y215688D01*
X88711Y213392D02*
X86874D01*
X88711Y215229D01*
Y215688D01*
X88252Y216147D01*
X87333D01*
X86874Y215688D01*
D11*
X65528Y181539D02*
G03*
X65528Y181539I-1200J0D01*
G01*
X84251Y135626D02*
G03*
X84251Y135626I-492J0D01*
G01*
X182609Y270867D02*
G03*
X182609Y270867I-1114J0D01*
G01*
X9547Y147638D02*
X12500D01*
X9547Y152362D02*
X12500D01*
X8661Y169842D02*
X11023D01*
X8661Y172598D02*
X11023D01*
X8661Y179724D02*
X11023D01*
X8661Y182480D02*
X11023D01*
X126378Y189960D02*
X128740D01*
X126378Y192716D02*
X128740D01*
X8661Y189567D02*
X11023D01*
X8661Y192323D02*
X11023D01*
X126378Y200000D02*
X128740D01*
X126378Y202756D02*
X128740D01*
X126378Y210236D02*
X128740D01*
X126378Y212992D02*
X128740D01*
X126771Y219882D02*
X129133D01*
X126771Y222638D02*
X129133D01*
X8661Y159842D02*
X11023D01*
X8661Y162598D02*
X11023D01*
X103248Y265354D02*
X104626D01*
X103248Y268110D02*
X104626D01*
X114666Y268110D02*
X116044D01*
X114666Y265354D02*
X116044D01*
X108071Y273622D02*
Y275984D01*
X105315Y273622D02*
Y275984D01*
X113937Y273622D02*
Y275984D01*
X111181Y273622D02*
Y275984D01*
X102363Y284449D02*
X104725D01*
X102363Y281693D02*
X104725D01*
X114684Y281890D02*
X117047D01*
X114684Y284645D02*
X117047D01*
X60686Y265354D02*
X62064D01*
X60686Y268110D02*
X62064D01*
X72398Y281889D02*
X74760D01*
X72398Y284645D02*
X74760D01*
X59801Y284646D02*
X62163D01*
X59801Y281890D02*
X62163D01*
X65509Y273622D02*
Y275984D01*
X62754Y273622D02*
Y275984D01*
X72258Y268110D02*
X73636D01*
X72258Y265355D02*
X73636D01*
X71538Y273648D02*
Y276010D01*
X68782Y273648D02*
Y276010D01*
X17618Y265550D02*
X18995D01*
X17618Y268306D02*
X18995D01*
X29233Y268307D02*
X30611D01*
X29233Y265551D02*
X30611D01*
X22245Y274212D02*
Y276574D01*
X19489Y274212D02*
Y276574D01*
X28544Y274015D02*
Y276377D01*
X25788Y274015D02*
Y276377D01*
X29435Y282283D02*
X31797D01*
X29435Y285039D02*
X31797D01*
X16732Y285039D02*
X19094D01*
X16732Y282283D02*
X19094D01*
X84435Y110827D02*
X85813D01*
X84435Y113583D02*
X85813D01*
X48175Y113583D02*
X49553D01*
X48175Y110827D02*
X49553D01*
X25588D02*
X26966D01*
X25588Y113583D02*
X26966D01*
X78996Y137890D02*
Y140252D01*
X76240Y137890D02*
Y140252D01*
X73925Y138776D02*
Y140154D01*
X71169Y138776D02*
Y140154D01*
X63783Y138776D02*
Y140154D01*
X61027Y138776D02*
Y140154D01*
X68854Y137890D02*
Y140252D01*
X66098Y137890D02*
Y140252D01*
X53641Y138776D02*
Y140154D01*
X50886Y138776D02*
Y140154D01*
X58712Y137890D02*
Y140252D01*
X55957Y137890D02*
Y140252D01*
X70964Y201724D02*
X72342D01*
X70964Y204480D02*
X72342D01*
X76477Y199213D02*
X79430D01*
X76477Y194488D02*
X79430D01*
X41339Y159676D02*
Y161054D01*
X38583Y159676D02*
Y161054D01*
X49213Y157972D02*
Y160925D01*
X44488Y157972D02*
Y160925D01*
X83792Y211811D02*
X86744D01*
X83792Y207087D02*
X86744D01*
X58169Y193684D02*
X61122D01*
X58169Y198408D02*
X61122D01*
X72965Y210847D02*
X75327D01*
X72965Y208091D02*
X75327D01*
X43208Y180118D02*
X46161D01*
X43208Y184843D02*
X46161D01*
X29134Y118897D02*
X117716D01*
X119685Y120866D02*
Y239764D01*
X27165Y120866D02*
Y143307D01*
X20866Y145275D02*
X25197D01*
X18897Y147244D02*
Y239764D01*
X32677Y253563D02*
X105905Y253563D01*
X60883Y182341D02*
X63526Y184984D01*
X86471D01*
X60883Y159397D02*
Y182341D01*
X86471Y184984D02*
X87471Y183901D01*
Y159397D02*
Y183901D01*
X60883Y159397D02*
X61966Y158396D01*
X86471D01*
X87471Y159397D01*
X83267Y141728D02*
Y143303D01*
X88778Y137791D02*
X91141D01*
X96652Y141728D02*
Y143303D01*
X88778Y147240D02*
X91141D01*
X157479Y288976D02*
X159842D01*
X157479Y291732D02*
X159842D01*
X130658Y53740D02*
X133611D01*
X130658Y58464D02*
X133611D01*
X138642Y71456D02*
Y78937D01*
X133130Y71456D02*
Y78937D01*
X146457Y113780D02*
X148819D01*
X146457Y116536D02*
X148819D01*
X146457Y107874D02*
X148819D01*
X146457Y110630D02*
X148819D01*
X153543Y95670D02*
Y101181D01*
X150393Y95670D02*
X153543D01*
X141732D02*
Y101181D01*
Y95670D02*
X144882D01*
X147637Y62992D02*
Y65748D01*
X146063D02*
Y73622D01*
Y65748D02*
X148819D01*
Y73622D01*
X146063D02*
X148819D01*
X147637D02*
Y76377D01*
X166535Y70472D02*
X168897Y75196D01*
Y76377D01*
X160236Y71653D02*
X166141D01*
X160236D02*
Y76377D01*
X177559Y71653D02*
Y76377D01*
X171653Y71653D02*
X177559D01*
X171653Y67716D02*
X177559D01*
Y62992D02*
Y67716D01*
X166535Y68897D02*
X168897Y64173D01*
X160236Y62992D02*
Y67716D01*
X166141D01*
X168897Y62992D02*
Y64173D01*
X142913Y56889D02*
Y82480D01*
X182283Y56889D02*
Y82480D01*
X151574Y63779D02*
X153543D01*
X152559Y62795D02*
Y64763D01*
X151574Y75590D02*
X153543D01*
X142913Y82480D02*
X145275D01*
X150000D02*
X157874D01*
X162599D02*
X166535D01*
X171259D02*
X175197D01*
X179921D02*
X182283D01*
X179921Y56889D02*
X182283D01*
X171259D02*
X175197D01*
X162599D02*
X166535D01*
X150000D02*
X157874D01*
X142913D02*
X145275D01*
X149311Y208071D02*
X150689D01*
X149311Y205315D02*
X150689D01*
X144921Y196850D02*
X147874Y199803D01*
X165787D01*
Y178937D02*
Y199803D01*
X147874Y178937D02*
X165787D01*
X144921Y181890D02*
X147874Y178937D01*
X144921Y181890D02*
Y196850D01*
X142559Y178051D02*
X145216D01*
X143937Y176673D02*
Y179331D01*
X177559Y235434D02*
X185433D01*
X167716Y235237D02*
X171653D01*
X157874D02*
X161811D01*
X148031D02*
X151968D01*
X134252D02*
X142126D01*
X134252Y274804D02*
X142126D01*
X148031D02*
X151968D01*
X157874D02*
X161811D01*
X167716D02*
X171653D01*
X177559Y275001D02*
X185433D01*
X134252Y235434D02*
Y274804D01*
X185433Y235434D02*
Y275001D01*
X17717Y342520D02*
X29528D01*
X15748Y330709D02*
Y340551D01*
X31496Y330709D02*
Y340551D01*
Y330709D02*
X33465D01*
X13780D02*
X15748D01*
X13780Y300000D02*
Y330709D01*
Y300000D02*
X33465D01*
Y330709D01*
X61024Y342520D02*
X72835D01*
X59055Y330709D02*
Y340551D01*
X74803Y330709D02*
Y340551D01*
Y330709D02*
X76772D01*
X57087D02*
X59055D01*
X57087Y300000D02*
Y330709D01*
Y300000D02*
X76772D01*
Y330709D01*
X104331Y342520D02*
X116142D01*
X102362Y330709D02*
Y340551D01*
X118110Y330709D02*
Y340551D01*
Y330709D02*
X120079D01*
X100394D02*
X102362D01*
X100394Y300000D02*
Y330709D01*
Y300000D02*
X120079D01*
Y330709D01*
X136023Y32284D02*
Y34646D01*
X138779Y32284D02*
Y34646D01*
D12*
X155216Y102559D02*
G03*
X155216Y102559I-492J0D01*
G01*
D13*
X13189Y142903D02*
X16364D01*
Y136554D02*
Y142903D01*
X13189Y136554D02*
X16364D01*
X13189D02*
Y142903D01*
X63189Y201548D02*
Y204722D01*
X56839Y201548D02*
X63189D01*
X56839D02*
Y204722D01*
X63189D01*
X48229Y188164D02*
Y191339D01*
X41879Y188164D02*
X48229D01*
X41879D02*
Y191339D01*
X48229D01*
X129159Y62204D02*
Y65379D01*
X135509D01*
Y62204D02*
Y65379D01*
X129159Y62204D02*
X135509D01*
X145841Y216141D02*
X149016D01*
X145841D02*
Y222491D01*
X149016D01*
Y216141D02*
Y222491D01*
X7874Y1576D02*
X125984D01*
X7874Y40158D02*
X125984D01*
Y1576D02*
Y40158D01*
X7874Y1576D02*
Y40158D01*
X145669Y335236D02*
X185039D01*
X145669Y302559D02*
Y335236D01*
Y302559D02*
X185039D01*
Y335236D01*
X145669Y36024D02*
X185039D01*
X145669Y3347D02*
Y36024D01*
Y3347D02*
X185039D01*
Y36024D01*
X134901Y17812D02*
X139901D01*
X134901Y6312D02*
X135901Y5312D01*
X138901D02*
X139901Y6312D01*
X135901Y5312D02*
X138901D01*
X139901Y6312D02*
Y10312D01*
Y13312D02*
Y17812D01*
X134901Y6312D02*
Y10312D01*
Y13312D02*
Y17812D01*
D14*
X145669Y297243D02*
X149605D01*
X147637Y299211D02*
Y295275D01*
X155509Y300195D02*
X151573D01*
Y297243D01*
X153541Y298227D01*
X154525D01*
X155509Y297243D01*
Y295275D01*
X154525Y294291D01*
X152557D01*
X151573Y295275D01*
X157476Y300195D02*
Y296259D01*
X159444Y294291D01*
X161412Y296259D01*
Y300195D01*
X172046Y299211D02*
X171062Y300195D01*
X169094D01*
X168110Y299211D01*
Y295275D01*
X169094Y294291D01*
X171062D01*
X172046Y295275D01*
Y297243D01*
X170078D01*
X174014Y294291D02*
Y300195D01*
X177950Y294291D01*
Y300195D01*
X179917D02*
Y294291D01*
X182869D01*
X183853Y295275D01*
Y299211D01*
X182869Y300195D01*
X179917D01*
X36419Y313386D02*
X42323D01*
Y317321D01*
Y319289D02*
Y321257D01*
Y320273D01*
X36419D01*
X37403Y319289D01*
X79726Y313386D02*
X85630D01*
Y317321D01*
Y323225D02*
Y319289D01*
X81694Y323225D01*
X80710D01*
X79726Y322241D01*
Y320273D01*
X80710Y319289D01*
X123033Y313386D02*
X128937D01*
Y317321D01*
X124017Y319289D02*
X123033Y320273D01*
Y322241D01*
X124017Y323225D01*
X125001D01*
X125985Y322241D01*
Y321257D01*
Y322241D01*
X126969Y323225D01*
X127953D01*
X128937Y322241D01*
Y320273D01*
X127953Y319289D01*
X178742Y100786D02*
Y96850D01*
X184646D01*
Y100786D01*
X181694Y96850D02*
Y98818D01*
X179726Y106690D02*
X178742Y105706D01*
Y103738D01*
X179726Y102754D01*
X180710D01*
X181694Y103738D01*
Y105706D01*
X182678Y106690D01*
X183662D01*
X184646Y105706D01*
Y103738D01*
X183662Y102754D01*
X184646Y108658D02*
X178742D01*
Y111609D01*
X179726Y112593D01*
X181694D01*
X182678Y111609D01*
Y108658D01*
X185630Y114561D02*
Y118497D01*
X184646Y120465D02*
X178742D01*
Y123417D01*
X179726Y124400D01*
X181694D01*
X182678Y123417D01*
Y120465D01*
X184646Y127352D02*
Y129320D01*
X183662Y130304D01*
X181694D01*
X180710Y129320D01*
Y127352D01*
X181694Y126368D01*
X183662D01*
X184646Y127352D01*
X180710Y132272D02*
X183662D01*
X184646Y133256D01*
X183662Y134240D01*
X184646Y135224D01*
X183662Y136208D01*
X180710D01*
X184646Y141127D02*
Y139160D01*
X183662Y138176D01*
X181694D01*
X180710Y139160D01*
Y141127D01*
X181694Y142111D01*
X182678D01*
Y138176D01*
X180710Y144079D02*
X184646D01*
X182678D01*
X181694Y145063D01*
X180710Y146047D01*
Y147031D01*
X185630Y149983D02*
Y153919D01*
X184646Y155886D02*
X178742D01*
X180710Y157854D01*
X178742Y159822D01*
X184646D01*
Y162774D02*
Y164742D01*
X183662Y165726D01*
X181694D01*
X180710Y164742D01*
Y162774D01*
X181694Y161790D01*
X183662D01*
X184646Y162774D01*
Y167694D02*
X180710D01*
Y170645D01*
X181694Y171629D01*
X184646D01*
Y173597D02*
Y175565D01*
Y174581D01*
X180710D01*
Y173597D01*
X179726Y179501D02*
X180710D01*
Y178517D01*
Y180485D01*
Y179501D01*
X183662D01*
X184646Y180485D01*
Y184421D02*
Y186388D01*
X183662Y187372D01*
X181694D01*
X180710Y186388D01*
Y184421D01*
X181694Y183437D01*
X183662D01*
X184646Y184421D01*
X180710Y189340D02*
X184646D01*
X182678D01*
X181694Y190324D01*
X180710Y191308D01*
Y192292D01*
X184646Y195244D02*
Y197212D01*
Y196228D01*
X180710D01*
Y195244D01*
X184646Y200163D02*
X180710D01*
Y203115D01*
X181694Y204099D01*
X184646D01*
X186614Y208035D02*
Y209019D01*
X185630Y210003D01*
X180710D01*
Y207051D01*
X181694Y206067D01*
X183662D01*
X184646Y207051D01*
Y210003D01*
X157479Y43306D02*
X156495Y44289D01*
X154527D01*
X153543Y43306D01*
Y39370D01*
X154527Y38386D01*
X156495D01*
X157479Y39370D01*
X170472Y38386D02*
Y44289D01*
X174408Y38386D01*
Y44289D01*
X179328D02*
X177360D01*
X176376Y43306D01*
Y39370D01*
X177360Y38386D01*
X179328D01*
X180312Y39370D01*
Y43306D01*
X179328Y44289D01*
X109252Y42323D02*
Y48226D01*
X113188Y42323D01*
Y48226D01*
X19685D02*
Y42323D01*
X23621D01*
X25589D02*
X27556D01*
X26573D01*
Y48226D01*
X25589Y47243D01*
X48228Y48226D02*
Y42323D01*
X52164D01*
X58068D02*
X54132D01*
X58068Y46259D01*
Y47243D01*
X57084Y48226D01*
X55116D01*
X54132Y47243D01*
X76772Y48226D02*
Y42323D01*
X80707D01*
X82675Y47243D02*
X83659Y48226D01*
X85627D01*
X86611Y47243D01*
Y46259D01*
X85627Y45275D01*
X84643D01*
X85627D01*
X86611Y44291D01*
Y43307D01*
X85627Y42323D01*
X83659D01*
X82675Y43307D01*
M02*
