G04*
G04 #@! TF.GenerationSoftware,Altium Limited,Altium Designer,19.0.14 (431)*
G04*
G04 Layer_Color=16711935*
%FSLAX25Y25*%
%MOIN*%
G70*
G01*
G75*
%ADD10C,0.00787*%
D10*
X166002Y32482D02*
X167254Y32146D01*
X168377Y31498D01*
X169293Y30582D01*
X169942Y29459D01*
X170277Y28207D01*
Y27559D02*
Y28207D01*
Y11811D02*
Y27559D01*
Y11163D02*
Y11811D01*
X169942Y9911D02*
X170277Y11163D01*
X169293Y8788D02*
X169942Y9911D01*
X168377Y7872D02*
X169293Y8788D01*
X167254Y7224D02*
X168377Y7872D01*
X166002Y6888D02*
X167254Y7224D01*
X164706Y6888D02*
X166002D01*
X163454Y7224D02*
X164706Y6888D01*
X162332Y7872D02*
X163454Y7224D01*
X161415Y8788D02*
X162332Y7872D01*
X160767Y9911D02*
X161415Y8788D01*
X160432Y11163D02*
X160767Y9911D01*
X160432Y11163D02*
Y11811D01*
Y27559D01*
Y28207D01*
X160767Y29459D01*
X161415Y30582D01*
X162332Y31498D01*
X163454Y32146D01*
X164706Y32482D01*
X166002D01*
X16277Y78153D02*
X16956Y78151D01*
X117547Y77757D01*
X117547Y77757D02*
X117547Y77757D01*
X117547Y77757D02*
X118224Y77754D01*
X119551Y77486D01*
X120800Y76964D01*
X121924Y76209D01*
X122880Y75249D01*
X123630Y74122D01*
X124147Y72871D01*
X124411Y71543D01*
Y70866D02*
Y71543D01*
Y70185D02*
Y70866D01*
X124145Y68851D02*
X124411Y70185D01*
X123623Y67594D02*
X124145Y68851D01*
X122865Y66464D02*
X123623Y67594D01*
X121901Y65503D02*
X122865Y66464D01*
X120768Y64750D02*
X121901Y65503D01*
X119509Y64233D02*
X120768Y64750D01*
X118173Y63972D02*
X119509Y64233D01*
X117493Y63974D02*
X118173Y63972D01*
X101380Y64038D02*
X117493Y63974D01*
X101380Y15748D02*
Y64038D01*
Y15100D02*
Y15748D01*
X101044Y13848D02*
X101380Y15100D01*
X100396Y12725D02*
X101044Y13848D01*
X99479Y11809D02*
X100396Y12725D01*
X98357Y11161D02*
X99479Y11809D01*
X97105Y10825D02*
X98357Y11161D01*
X95809Y10825D02*
X97105D01*
X94557Y11161D02*
X95809Y10825D01*
X93434Y11809D02*
X94557Y11161D01*
X92518Y12725D02*
X93434Y11809D01*
X91869Y13848D02*
X92518Y12725D01*
X91534Y15100D02*
X91869Y13848D01*
X91534Y15100D02*
Y15748D01*
Y64076D01*
X71852Y64153D02*
X91534Y64076D01*
X71852Y15748D02*
Y64153D01*
Y15100D02*
Y15748D01*
X71516Y13848D02*
X71852Y15100D01*
X70868Y12725D02*
X71516Y13848D01*
X69952Y11809D02*
X70868Y12725D01*
X68829Y11161D02*
X69952Y11809D01*
X67577Y10825D02*
X68829Y11161D01*
X66281Y10825D02*
X67577D01*
X65029Y11161D02*
X66281Y10825D01*
X63907Y11809D02*
X65029Y11161D01*
X62990Y12725D02*
X63907Y11809D01*
X62342Y13848D02*
X62990Y12725D01*
X62006Y15100D02*
X62342Y13848D01*
X62006Y15100D02*
Y15748D01*
Y64192D01*
X42324Y64269D02*
X62006Y64192D01*
X42324Y15748D02*
Y64269D01*
Y15100D02*
Y15748D01*
X41989Y13848D02*
X42324Y15100D01*
X41341Y12725D02*
X41989Y13848D01*
X40424Y11809D02*
X41341Y12725D01*
X39302Y11161D02*
X40424Y11809D01*
X38050Y10825D02*
X39302Y11161D01*
X36753Y10825D02*
X38050D01*
X35502Y11161D02*
X36753Y10825D01*
X34379Y11809D02*
X35502Y11161D01*
X33462Y12725D02*
X34379Y11809D01*
X32814Y13848D02*
X33462Y12725D01*
X32479Y15100D02*
X32814Y13848D01*
X32479Y15100D02*
Y15748D01*
Y64307D01*
X16902Y64368D02*
X32479Y64307D01*
X16223Y64371D02*
X16902Y64368D01*
X14893Y64641D02*
X16223Y64371D01*
X13641Y65165D02*
X14893Y64641D01*
X12515Y65924D02*
X13641Y65165D01*
X11559Y66887D02*
X12515Y65924D01*
X10809Y68019D02*
X11559Y66887D01*
X10295Y69275D02*
X10809Y68019D01*
X10035Y70608D02*
X10295Y69275D01*
X10035Y70608D02*
X10041Y71965D01*
X10311Y73295D01*
X10835Y74548D01*
X11594Y75673D01*
X12557Y76629D01*
X13689Y77379D01*
X14945Y77894D01*
X16277Y78153D01*
X192913Y0D02*
Y338583D01*
X0D02*
X192913D01*
X0Y0D02*
Y338583D01*
Y0D02*
X192913D01*
M02*
