M48
;Layer_Color=9474304
;FILE_FORMAT=2:5
INCH,LZ
;TYPE=PLATED
T1F00S00C0.01181
T3F00S00C0.03346
T4F00S00C0.03937
T5F00S00C0.05118
T6F00S00C0.05906
T7F00S00C0.07874
;TYPE=NON_PLATED
T8F00S00C0.04724
%
T01
X0128683Y0051181
X0032183Y0120866
X0014567Y0131102
X0014763Y0139753
X0003937Y0141732
Y0133858
Y0125984
Y011811
Y0110236
X0004331Y0156299
X000748Y0166535
X0008386Y0176772
X0008661Y0185905
X0003937Y019685
Y0204956
X0045079Y0189764
X0049213Y0175437
Y0171893
X0068253Y0171904
X0065748Y0174409
X0064961Y0182283
X0061417
X0077165Y0182677
X0080709Y0179528
X0085039Y0182677
X0095276Y018937
X0060039Y0203148
X0064567Y0146457
X0070472
Y0122441
X0064567Y0124016
X0129528Y0142126
X0138583Y0114961
X0188976Y0116142
Y0124016
Y013189
Y0139764
Y0147638
Y0155512
Y0163386
Y017126
Y0179134
Y0187008
Y0194882
Y0202756
Y021063
Y0108268
X0132309Y0063779
X0147441Y0219291
X0188976Y0218504
Y0226378
Y0234252
Y0242126
Y025
Y0257874
X0111417Y0261024
X0107874
X0068799Y0261417
X0065256
X0049508Y0216142
X0045965
X0043307Y0334646
X0035433
X0051181
X0059055
X0066929
X0074803
X0082677
X0090551
X0098425
X0106299
X0114173
X0122047
X0129921
X0137795
X0027559
X0019685
X0011811
X0003937Y0334646
Y032654
Y0318434
Y0310329
Y0302223
Y0294118
Y0286012
Y0277906
Y0269801
Y0261695
Y025359
Y0245484
Y0237378
Y0229273
Y0221167
Y0213062
T03
X0052165Y0055866
X0081693
X0111221Y0056378
X0022638Y0055866
Y0085866
X0052165
X0063385Y0095984
X0081693Y0085866
X0111221Y0096378
T04
X0024291Y015122
Y016122
Y017122
Y018122
Y019122
Y020122
Y021122
X0114291
Y020122
Y019122
Y018122
Y017122
Y016122
Y015122
Y022122
X0024291
T05
X0155512Y0019685
X0175197
X0175197Y0318898
X0155512
T06
X0052165Y0019686
X0081693
X011122
X0022638
T07
X0107086Y0129625
X0030512Y024183
T08
X0066929Y0316929
X0110236Y0316929
X0023622Y0316929
M30
