M48
;Layer_Color=9474304
;FILE_FORMAT=2:5
INCH,LZ
;TYPE=PLATED
T2F00S00C0.03150
;TYPE=NON_PLATED
%
G90
G05
T02
G00X0068307Y0299213
M15
G01X0065551
M16
G00X0074213Y0305709
M15
G01Y0308465
M16
G00X0059646Y0305709
M15
G01Y0308465
M16
G00X0068307Y0326378
M15
G01X0065551
M16
G00X0111614Y0326378
M15
G01X0108858
M16
G00X011752Y0305709
M15
G01Y0308465
M16
G00X0102953Y0305709
M15
G01Y0308465
M16
G00X0111614Y0299213
M15
G01X0108858
M16
G00X0025Y0299213
M15
G01X0022244
M16
G00X0030906Y0305709
M15
G01Y0308465
M16
G00X0016339Y0305709
M15
G01Y0308465
M16
G00X0025Y0326378
M15
G01X0022244
M16
M17
M30
